<?xml version="1.0" encoding="UTF-8" standalone="no"?>
<svg
   xmlns:dc="http://purl.org/dc/elements/1.1/"
   xmlns:cc="http://creativecommons.org/ns#"
   xmlns:rdf="http://www.w3.org/1999/02/22-rdf-syntax-ns#"
   xmlns:svg="http://www.w3.org/2000/svg"
   xmlns="http://www.w3.org/2000/svg"
   xmlns:sodipodi="http://sodipodi.sourceforge.net/DTD/sodipodi-0.dtd"
   xmlns:inkscape="http://www.inkscape.org/namespaces/inkscape"
   viewBox="0 -240 1200 1200"
   id="svg2"
   version="1.1"
   inkscape:version="0.48.4 r9939"
   width="100%"
   height="100%"
   sodipodi:docname="uniE012_GLYPHICONSHalflings-Regular.svg"
   inkscape:export-filename="/home/victor/Projects/Chrome plugins/tabmenu/uniE012_G.png"
   inkscape:export-xdpi="1.425"
   inkscape:export-ydpi="1.425">
  <metadata
     id="metadata12">
    <rdf:RDF>
      <cc:Work
         rdf:about="">
        <dc:format>image/svg+xml</dc:format>
        <dc:type
           rdf:resource="http://purl.org/dc/dcmitype/StillImage" />
        <dc:title></dc:title>
      </cc:Work>
    </rdf:RDF>
  </metadata>
  <defs
     id="defs10" />
  <sodipodi:namedview
     pagecolor="#ffffff"
     bordercolor="#666666"
     borderopacity="1"
     objecttolerance="10"
     gridtolerance="10"
     guidetolerance="10"
     inkscape:pageopacity="0"
     inkscape:pageshadow="2"
     inkscape:window-width="640"
     inkscape:window-height="480"
     id="namedview8"
     showgrid="false"
     inkscape:zoom="0.19666667"
     inkscape:cx="600"
     inkscape:cy="600"
     inkscape:window-x="0"
     inkscape:window-y="27"
     inkscape:window-maximized="0"
     inkscape:current-layer="svg2" />
  <g
     transform="matrix(1,0,0,-1,0,918)"
     id="g4">
    <path
       d="M 0,50 V 250 Q 0,271 14.5,285.5 29,300 50,300 h 200 q 21,0 35.5,-14.5 Q 300,271 300,250 V 50 Q 300,29 285.5,14.5 271,0 250,0 H 50 Q 29,0 14.5,14.5 0,29 0,50 z M 0,450 Q 0,429 14.5,414.5 29,400 50,400 h 200 q 21,0 35.5,14.5 Q 300,429 300,450 v 200 q 0,21 -14.5,35.5 Q 271,700 250,700 H 50 Q 29,700 14.5,685.5 0,671 0,650 V 450 z m 0,400 v 200 q 0,21 14.5,35.5 Q 29,1100 50,1100 h 200 q 21,0 35.5,-14.5 Q 300,1071 300,1050 V 850 Q 300,829 285.5,814.5 271,800 250,800 H 50 Q 29,800 14.5,814.5 0,829 0,850 z M 400,50 v 200 q 0,21 14.5,35.5 Q 429,300 450,300 h 700 q 21,0 35.5,-14.5 Q 1200,271 1200,250 V 50 Q 1200,29 1185.5,14.5 1171,0 1150,0 H 450 Q 429,0 414.5,14.5 400,29 400,50 z m 0,400 v 200 q 0,21 14.5,35.5 Q 429,700 450,700 h 700 q 21,0 35.5,-14.5 Q 1200,671 1200,650 V 450 q 0,-21 -14.5,-35.5 Q 1171,400 1150,400 H 450 q -21,0 -35.5,14.5 Q 400,429 400,450 z m 0,400 v 200 q 0,21 14.5,35.5 14.5,14.5 35.5,14.5 h 700 q 21,0 35.5,-14.5 Q 1200,1071 1200,1050 V 850 q 0,-21 -14.5,-35.5 Q 1171,800 1150,800 H 450 q -21,0 -35.5,14.5 Q 400,829 400,850 z"
       id="path6"
       inkscape:connector-curvature="0"
       style="fill:currentColor" />
  </g>
</svg>
