<?xml version="1.0" encoding="UTF-8" standalone="no"?>
<svg
   xmlns:dc="http://purl.org/dc/elements/1.1/"
   xmlns:cc="http://creativecommons.org/ns#"
   xmlns:rdf="http://www.w3.org/1999/02/22-rdf-syntax-ns#"
   xmlns:svg="http://www.w3.org/2000/svg"
   xmlns="http://www.w3.org/2000/svg"
   xmlns:sodipodi="http://sodipodi.sourceforge.net/DTD/sodipodi-0.dtd"
   xmlns:inkscape="http://www.inkscape.org/namespaces/inkscape"
   version="1.0"
   x="0px"
   y="0px"
   viewBox="0 0 100 100"
   enable-background="new 0 0 100 100"
   xml:space="preserve"
   id="svg2"
   inkscape:version="0.91 r13725"
   sodipodi:docname="icon.svg"
   width="100"
   height="100"><metadata
     id="metadata260"><rdf:RDF><cc:Work
         rdf:about=""><dc:format>image/svg+xml</dc:format><dc:type
           rdf:resource="http://purl.org/dc/dcmitype/StillImage" /><dc:title /></cc:Work></rdf:RDF></metadata><defs
     id="defs258" /><sodipodi:namedview
     pagecolor="#ffffff"
     bordercolor="#666666"
     borderopacity="1"
     objecttolerance="10"
     gridtolerance="10"
     guidetolerance="10"
     inkscape:pageopacity="0"
     inkscape:pageshadow="2"
     inkscape:window-width="1366"
     inkscape:window-height="768"
     id="namedview256"
     showgrid="false"
     inkscape:zoom="5.6568544"
     inkscape:cx="50.384092"
     inkscape:cy="48.454726"
     inkscape:window-x="0"
     inkscape:window-y="0"
     inkscape:window-maximized="0"
     inkscape:current-layer="g4" /><g
     id="g4"><g
       id="g6"
       transform="translate(0,-6.1e-6)"><g
         id="g4256"
         transform="translate(0,2.4)"><path
           inkscape:connector-curvature="0"
           id="path8"
           d="m 82.4,25 -64.8,0 c -1.7,0 -5.1,-2.483871 -5.1,-5.5 l 0,0 c 0,-3.016129 3.4,-5.5 5.1,-5.5 l 64.8,0 c 1.7,0 5.1,2.483871 5.1,5.5 l 0,0 c 0,3.016129 -3.4,5.5 -5.1,5.5 z"
           sodipodi:nodetypes="ssccssccs" /></g></g><g
       display="none"
       id="g16"
       style="display:none"><path
         display="inline"
         d="M 49.5,85.8 C 48.8,85.8 48.1,85.5 47.6,85 46.2,83.6 13.7,51 13.7,32.9 13.7,21 21.4,13 32.8,13 c 6.2,0 11.4,2.3 15,6.1 1.2,1.3 3.2,1.3 4.3,0 C 55.7,15.3 60.9,13 67.1,13 78.8,13 87,21.5 87,33.7 87,41.2 80.9,52.1 68.9,66.3 60.3,76.5 51.5,84.9 51.4,85 c -0.5,0.5 -1.2,0.8 -1.9,0.8 z M 32.8,18.4 c -8.4,0 -13.7,5.5 -13.7,14.5 0,11.5 17.9,33 28.4,44.2 1.1,1.2 3.1,1.2 4.2,0.1 11,-11.1 29.9,-32.5 29.9,-43.4 0,-9.3 -5.7,-15.2 -14.5,-15.2 -8.5,0 -14.4,5.5 -14.5,13.5 0,1.5 -1.1,2.8 -2.6,2.9 -1.6,0.1 -2.9,-1.2 -2.9,-2.7 C 47.3,24 41.3,18.4 32.8,18.4 Z"
         id="path18"
         inkscape:connector-curvature="0"
         style="display:inline" /></g><g
       display="none"
       id="g20"
       style="display:none"><g
         display="inline"
         id="g22"
         style="display:inline"><path
           d="m 43,90.4 c -0.5,0 -1,-0.1 -1.4,-0.4 -1.1,-0.6 -1.8,-1.9 -1.7,-3.1 l 1.6,-20 c 0.1,-1.7 1.6,-3 3.4,-2.9 1.7,0.1 3,1.6 2.9,3.4 l -0.4,4.7 c -0.1,0.8 1,1.2 1.4,0.5 L 64.7,48 c 0.3,-0.5 0,-1.2 -0.7,-1.2 l -10.8,0 c -0.5,0 -1.1,-0.1 -1.5,-0.4 -1.2,-0.6 -1.8,-1.9 -1.6,-3.2 l 1.8,-14.5 c 0.1,-0.8 -1,-1.2 -1.4,-0.5 L 35.6,50.3 c -0.3,0.5 0,1.2 0.6,1.2 l 8.9,0 c 1.6,0 3.1,1.2 3.2,2.8 0.2,1.9 -1.3,3.4 -3.1,3.4 l -16.2,0 c -0.8,0 -1.6,-0.3 -2.2,-0.8 -1.2,-1.1 -1.3,-2.8 -0.5,-4 L 54.4,11.2 c 0.7,-1 1.9,-1.6 3.1,-1.4 1.7,0.3 2.9,1.8 2.7,3.5 l -3.5,27.3 14.3,0 c 0.8,0 1.6,0.3 2.2,0.8 1.2,1.1 1.3,2.8 0.5,4 L 45.6,89 C 45,89.9 44,90.4 43,90.4 Z"
           id="path24"
           inkscape:connector-curvature="0" /></g></g><g
       display="none"
       id="g26"
       style="display:none"><path
         display="inline"
         d="M 89.8,85.5 67.4,61.8 c -1.3,1.6 -2.8,3.1 -4.4,4.5 l 22.4,23.4 c 1.3,1.3 3.4,1.2 4.5,-0.2 1,-1.2 0.9,-2.9 -0.1,-4 z"
         id="path28"
         inkscape:connector-curvature="0"
         style="display:inline" /><path
         display="inline"
         d="M 62.6,59.1 C 57.4,65.4 49.3,69.2 40.5,68.7 26.9,67.8 16,56.5 15.6,42.9 15.2,27.4 28.1,14.8 43.7,15.7 c 12.8,0.7 23.4,10.8 24.8,23.5 0.4,3.9 0,7.7 -1.1,11.1 -0.4,1.1 -0.1,2.3 0.7,3.1 l 0,0 c 1.6,1.7 4.5,1.1 5.2,-1.1 1.3,-3.9 1.8,-8.1 1.5,-12.5 C 73.7,23.4 60.3,10.2 43.8,9.4 25.2,8.5 9.8,23.1 9.4,41.4 9,59.2 23.2,74.3 41,75 52,75.4 61.9,70.4 68.1,62.4 L 64.9,59 c -0.6,-0.6 -1.7,-0.6 -2.3,0.1 z"
         id="path30"
         inkscape:connector-curvature="0"
         style="display:inline" /></g><g
       display="none"
       id="g32"
       style="display:none"><g
         display="inline"
         id="g34"
         style="display:inline"><g
           id="g36"><path
             d="m 56.6,81.2 c -0.7,0 -1.3,0.4 -1.8,0.9 -1.1,1.4 -2.9,2.3 -4.8,2.3 -1.9,0 -3.7,-0.9 -4.8,-2.3 -0.4,-0.5 -1.1,-0.9 -1.8,-0.9 -0.7,0 -1.4,0 -2.1,0 -1.8,0 -2.9,1.9 -2,3.4 2.2,3.6 6.1,6 10.7,6 4.6,0 8.5,-2.4 10.7,-6 0.9,-1.5 -0.2,-3.5 -2,-3.4 -0.7,0 -1.4,0 -2.1,0 z"
             id="path38"
             inkscape:connector-curvature="0" /></g><path
           d="m 74.9,60.5 0,0 -0.2,-0.1 C 74,59.9 69.5,56.1 69.5,39.8 c 0,-5.6 -0.9,-10.1 -2.8,-13.4 -1,-1.8 -3.6,-2.2 -5,-0.6 0,0 0,0 0,0.1 -0.9,1 -1,2.5 -0.4,3.7 1.3,2.2 1.9,5.5 1.9,10.3 0,20.7 6.9,25.3 8.8,26.2 2.2,1.2 2.2,2.2 2.2,2.7 0,0.4 -0.4,1.3 -0.7,1.6 0,0 -3.7,1.5 -23.5,1.5 -20.2,0 -23.5,-1.5 -23.5,-1.5 -0.3,-0.3 -0.7,-1.2 -0.7,-1.6 0,-0.5 0,-1.5 2.2,-2.7 1.6,-0.8 7.9,-5.4 7.9,-26.2 0,-9.5 2.3,-14.9 14.1,-14.9 3.6,0 6.8,-2.1 8.3,-5.1 -2.4,-0.7 -5.2,-1.1 -8.3,-1.1 -13.9,0 -20.3,6.7 -20.3,21.1 0,16.8 -4.3,20.4 -4.6,20.7 -3.7,2 -5.5,4.8 -5.5,8.2 0,2.5 1.5,6.2 4.5,7.4 1.7,1.2 6.5,2 26,2 19.5,0 24.4,-0.8 26,-2 2.9,-1.2 4.5,-4.9 4.5,-7.4 -0.1,-3.5 -2,-6.3 -5.7,-8.3 z"
           id="path40"
           inkscape:connector-curvature="0" /><path
           d="m 50,12.5 c 1.7,0 3.1,1.4 3.1,3.1 0,1.7 -1.4,3.1 -3.1,3.1 -1.7,0 -3.1,-1.4 -3.1,-3.1 0,-1.7 1.4,-3.1 3.1,-3.1 m 0,-6.3 c -5.2,0 -9.4,4.2 -9.4,9.4 0,5.2 4.2,9.4 9.4,9.4 5.2,0 9.4,-4.2 9.4,-9.4 0,-5.2 -4.2,-9.4 -9.4,-9.4 l 0,0 z"
           id="path42"
           inkscape:connector-curvature="0" /></g></g><g
       display="none"
       id="g44"
       style="display:none"><g
         display="inline"
         id="g46"
         style="display:inline"><path
           d="m 71.9,85.9 c -0.7,0 -1.5,-0.3 -2.1,-0.8 L 55.9,72.7 c -0.6,-0.5 -1.3,-0.8 -2.1,-0.8 l -32,0 c -5.2,0 -9.4,-4.2 -9.4,-9.4 l 0,-37.5 c 0,-5.2 4.2,-9.4 9.4,-9.4 l 56.2,0 c 5.2,0 9.4,4.2 9.4,9.4 l 0,37.5 c 0,5.2 -4.2,9.4 -9.4,9.4 l -6.2,0 c -1.7,0 -3.1,-1.4 -3.1,-3.1 0,-1.7 1.4,-3.1 3.1,-3.1 l 6.2,0 c 1.7,0 3.1,-1.4 3.1,-3.1 l 0,-37.6 c 0,-1.7 -1.4,-3.1 -3.1,-3.1 l -56.1,0 c -1.7,0 -3.1,1.4 -3.1,3.1 l 0,37.5 c 0,1.7 1.4,3.1 3.1,3.1 l 32,0 c 2.3,0 4.5,0.9 6.3,2.4 L 74,80.5 c 1.3,1.2 1.4,3.1 0.2,4.4 -0.6,0.7 -1.5,1 -2.3,1 z"
           id="path48"
           inkscape:connector-curvature="0" /></g></g><path
       display="none"
       d="m 76.6,35.9 0,0 C 76.5,21 64.6,9.4 50,9.4 35.4,9.4 23.5,21 23.4,35.9 l 0,0 c 0,0 0,0 0,0 0,0 0,0 0,0 l 0,0 C 23.5,56.1 47,76.5 48,77.4 c 0.6,0.5 1.3,0.8 2,0.8 0.7,0 1.4,-0.3 2,-0.8 1,-0.9 24.5,-21.2 24.6,-41.5 l 0,0 c 0,0.1 0,0.1 0,0 0,0.1 0,0 0,0 z M 52.2,68.6 C 51,69.8 49,69.8 47.8,68.6 41.3,62 29.7,48.5 29.7,36 29.7,25 38.8,15.7 50,15.7 61.2,15.7 70.3,25 70.3,36 70.3,48.5 58.7,62 52.2,68.6 Z m 24.4,9.5 c 0,8.2 -13.4,12.5 -26.6,12.5 -13.2,0 -26.6,-4.3 -26.6,-12.5 0,-3.8 2.9,-6.7 7.3,-8.8 1.2,-0.6 2.7,-0.2 3.6,0.8 0,0 0,0 0,0.1 1.3,1.6 0.8,3.9 -1.1,4.8 -2.4,1.2 -3.6,2.4 -3.6,3.2 0,1.9 6.9,6.2 20.3,6.2 13.4,0 20.3,-4.4 20.3,-6.2 0,-0.8 -1.2,-2 -3.6,-3.2 -1.8,-0.9 -2.4,-3.2 -1.1,-4.8 0,0 0,0 0,-0.1 0.9,-1 2.4,-1.4 3.6,-0.8 4.6,2.1 7.5,5 7.5,8.8 z M 50,25 c -6,0 -10.9,4.9 -10.9,10.9 0,6 4.9,11 10.9,11 C 56,46.9 60.9,42 60.9,36 60.9,30 56,25 50,25 Z m 0,15.6 c -2.6,0 -4.7,-2.1 -4.7,-4.7 0,-2.6 2.1,-4.7 4.7,-4.7 2.6,0 4.7,2.1 4.7,4.7 0,2.6 -2.1,4.7 -4.7,4.7 z"
       id="path50"
       inkscape:connector-curvature="0"
       style="display:none" /><g
       display="none"
       id="g52"
       style="display:none"><path
         display="inline"
         d="M 50,66.4 C 41,66.4 33.6,59 33.6,50 33.6,41 41,33.6 50,33.6 c 9,0 16.4,7.4 16.4,16.4 0,1.3 -0.2,2.6 -0.5,3.9 -0.4,1.7 -2.1,2.7 -3.8,2.3 -1.7,-0.4 -2.7,-2.1 -2.3,-3.8 0.2,-0.8 0.3,-1.6 0.3,-2.4 0,-5.6 -4.6,-10.2 -10.2,-10.2 -5.6,0 -10.1,4.6 -10.1,10.2 0,5.6 4.6,10.2 10.2,10.2 1.2,0 2.4,-0.2 3.6,-0.6 1.6,-0.6 3.4,0.2 4,1.8 0.6,1.6 -0.2,3.4 -1.8,4 -1.9,0.7 -3.8,1 -5.8,1 z m 12,14.8 0,-3 1.9,2.1 c 1.8,1.8 4.1,2.7 6.6,2.7 2.5,0 4.8,-1 6.6,-2.7 L 80.4,77 c 1.8,-1.8 2.7,-4.1 2.7,-6.6 0,-2.5 -1,-4.7 -2.8,-6.5 l -2.1,-2 3,0 c 5.2,0 9.8,-4.5 9.8,-9.7 l 0,-4.7 c 0,-5.2 -4.6,-9.7 -9.8,-9.7 l -3,0 2.1,-1.9 C 84,32.2 84,26.4 80.3,22.7 L 77,19.4 c -1.8,-1.8 -4.1,-2.7 -6.6,-2.7 -2.5,0 -4.7,1 -6.5,2.8 L 62,21.7 62,18.8 C 62,13.6 57.5,9 52.3,9 l -4.7,0 c -5.2,0 -9.7,4.6 -9.7,9.8 l 0,3 L 36,19.7 C 34.2,17.9 31.9,17 29.4,17 c -2.5,0 -4.8,1 -6.6,2.7 L 19.5,23 c -3.7,3.7 -3.6,9.5 0,13.1 l 2.1,1.9 -3,0 C 13.6,38 9,42.5 9,47.7 l 0,4.7 c 0,5.2 4.6,9.7 9.8,9.7 l 3,0 -2.1,1.9 c -3.7,3.7 -3.7,9.5 0,13.2 l 3.3,3.3 c 1.8,1.8 4.1,2.7 6.6,2.7 2.5,0 4.7,-1 6.5,-2.8 l 1.9,-2.1 0,3 c 0,5.2 4.5,9.8 9.7,9.8 l 4.7,0 C 57.5,91 62,86.4 62,81.2 Z M 34.9,72.9 31.8,76 c -0.6,0.6 -1.4,0.9 -2.2,0.9 -0.8,0 -1.6,-0.3 -2.2,-0.9 L 24,72.6 c -1.2,-1.2 -1.2,-3.2 0,-4.4 l 3.1,-3.1 c 1.6,-1.6 2.1,-4.3 1.2,-6.4 C 27.4,56.6 25.4,55 23.1,55 l -4.4,0 C 17,55 16,54.1 16,52.3 l 0,-4.7 c 0,-1.7 1,-2.7 2.8,-2.7 l 4.4,0 c 2.3,0 4.3,-1.6 5.2,-3.8 0,0 0,-0.1 0,-0.1 0.9,-2.1 0.4,-4.6 -1.2,-6.2 l -3.2,-3 c -1.2,-1.2 -1.2,-3.2 0,-4.4 l 3.3,-3.3 c 0.6,-0.6 1.4,-0.9 2.2,-0.9 0.8,0 1.6,0.3 2.2,0.9 l 2.8,2.8 c 1.2,1.2 2.7,1.8 4.4,1.8 0.8,0 1.6,-0.2 2.3,-0.4 0,0 0,0 0,0 0,0 0.2,0 0.2,0 1.9,-0.8 3.4,-2.6 3.4,-4.7 l 0,-4.8 c 0,-1.7 0.9,-2.8 2.7,-2.8 l 4.7,0 c 1.7,0 2.7,1 2.7,2.8 l 0,4.4 c 0,2.3 1.6,4.3 3.8,5.2 0.7,0.3 1.5,0.4 2.3,0.4 1.5,0 3,-0.6 4,-1.6 l 3.1,-3.1 c 0.6,-0.6 1.4,-0.9 2.2,-0.9 0.8,0 1.6,0.3 2.2,0.9 l 3.3,3.3 c 1.2,1.2 1.2,3.2 0,4.4 l -3.1,3.1 c -1.6,1.6 -2.1,4.3 -1.2,6.4 0.9,2.1 2.9,3.7 5.2,3.7 l 4.4,0 c 1.7,0 2.8,0.9 2.8,2.7 l 0,4.7 c 0,1.7 -1,2.7 -2.8,2.7 l -4.4,0 c -2.3,0 -4.3,1.6 -5.2,3.7 0,0 0,0.1 0,0.1 0,0 0,0.1 0,0.1 -0.9,2.1 -0.4,4.5 1.2,6.2 l 3.1,3.1 c 1.2,1.2 1.2,3.2 0,4.4 L 72.6,76 c -0.6,0.6 -1.4,0.9 -2.2,0.9 -0.8,0 -1.6,-0.3 -2.2,-0.9 l -3.1,-3.1 c -1.1,-1.1 -2.5,-1.6 -4,-1.6 -0.7,0 -1.4,0.1 -2.1,0.4 0,0 -0.3,0 -0.3,0 -2.1,0.9 -3.7,2.9 -3.7,5.2 l 0,4.4 c 0,1.7 -0.9,2.8 -2.7,2.8 l -4.7,0 c -1.7,0 -2.7,-1 -2.7,-2.8 l 0,-4.4 c 0,-2.3 -1.6,-4.3 -3.8,-5.2 -0.7,-0.3 -1.5,-0.4 -2.3,-0.4 -1.3,-0.1 -2.9,0.5 -3.9,1.6 z"
         id="path54"
         inkscape:connector-curvature="0"
         style="display:inline" /></g><g
       display="none"
       id="g56"
       style="display:none"><path
         display="inline"
         d="m 78.1,75 c -0.8,0 -1.6,-0.3 -2.2,-0.9 l -11.6,-11.6 -26.8,0 c -5.2,0 -9.4,-4.2 -9.4,-9.4 l 0,-28.1 c 0,-5.2 4.2,-9.4 9.4,-9.4 l 43.8,0 c 5.2,0 9.4,4.2 9.4,9.4 l 0,28.1 c 0,5.2 -4.2,9.4 -9.4,9.4 l -0.8,0 c -1.7,0 -3.1,-1.4 -3.1,-3.1 0,-1.7 1.4,-3.1 3.1,-3.1 l 0.8,0 c 1.7,0 3.1,-1.4 3.1,-3.1 l 0,-28.2 c 0,-1.7 -1.4,-3.1 -3.1,-3.1 l -43.8,0 c -1.7,0 -3.1,1.4 -3.1,3.1 l 0,28.1 c 0,1.7 1.4,3.1 3.1,3.1 l 28.1,0 c 0.8,0 1.6,0.3 2.2,0.9 l 12.5,12.5 c 1.2,1.2 1.2,3.2 0,4.4 -0.6,0.7 -1.4,1 -2.2,1 z M 25,71.9 c 0,-1.7 -1.4,-3.1 -3.1,-3.1 l -3.1,0 c -1.7,0 -3.1,-1.4 -3.1,-3.1 l 0,-27.4 c 0,-1.7 1.4,-3.1 3.1,-3.1 l 3.1,0 C 23.6,35.2 25,33.8 25,32.1 25,30.4 23.6,29 21.9,29 l -3.1,0 c -5.2,0 -9.4,4.2 -9.4,9.4 l 0,27.3 c 0,5.2 4.2,9.4 9.4,9.4 l 3.1,0 C 23.6,75 25,73.6 25,71.9 Z M 27.2,86.6 38.8,75 62.5,75 c 1.7,0 3.1,-1.4 3.1,-3.1 0,-1.7 -1.4,-3.1 -3.1,-3.1 l -25,0 c -0.8,0 -1.6,0.3 -2.2,0.9 L 22.8,82.2 c -1.2,1.2 -1.2,3.2 0,4.4 0.6,0.6 1.4,0.9 2.2,0.9 0.8,0 1.6,-0.3 2.2,-0.9 z"
         id="path58"
         inkscape:connector-curvature="0"
         style="display:inline" /></g><g
       display="none"
       id="g60"
       style="display:none"><path
         display="inline"
         d="m 53.1,90.6 c -1,0 -2,-0.5 -2.9,-1.7 C 50,88.6 50,88.3 50,88 l 0,-23.3 c 0,-0.4 0.2,-0.8 0.5,-1.1 2.7,-2.4 5.8,-0.6 5.8,2 l 0,3.9 c 0,0.8 1.1,1.1 1.5,0.3 6.8,-15 16.8,-36.8 22.5,-49.2 0.3,-0.7 -0.4,-1.3 -1,-1 L 28.9,42.3 c -0.8,0.3 -0.5,1.5 0.3,1.5 l 20.8,0 c 3.5,0 6.2,2.8 6.2,6.4 l 0,3.9 c 0,0.4 -0.2,0.8 -0.5,1.1 -2.7,2.4 -5.8,0.6 -5.8,-2 l 0,-1.6 C 49.9,50.7 49.2,50 48.3,50 L 10.1,50 C 9.8,50 9.5,49.9 9.3,49.8 6.9,48 7.6,45 9.7,44 L 86.2,9.6 c 1.9,-0.9 4.3,0.3 4.5,3 0,0.2 0,0.4 -0.1,0.6 C 79,38.5 56.5,87.5 56,88.7 c -0.5,1.2 -1.7,1.9 -2.9,1.9 z"
         id="path62"
         inkscape:connector-curvature="0"
         style="display:inline" /></g><g
       display="none"
       id="g64"
       style="display:none"><path
         display="inline"
         d="m 84.2,56.8 c -5.9,5.9 -18.3,15.9 -35,15.9 -17.1,0 -29.7,-10.4 -35.7,-16.6 -1.2,-1.2 -1.2,-3.2 0.1,-4.4 1.2,-1.2 3.2,-1.2 4.4,0.1 5.3,5.5 16.4,14.7 31.2,14.7 14.5,0 25.4,-8.8 30.6,-14 1.2,-1.2 3.2,-1.2 4.4,0 1.3,1.1 1.3,3.1 0,4.3 z m -1.6,-11 C 81.4,46.4 80,46.2 79,45.2 75.8,42.1 71.5,38.7 66.3,36.1 c -0.5,-0.3 -1.1,0.3 -0.9,0.8 0.7,1.9 1.1,3.9 1.1,6 0,10.7 -9.8,19.1 -20.9,16.8 -6.5,-1.4 -11.7,-6.5 -13.1,-13 -0.7,-3.5 -0.4,-6.8 0.7,-9.8 0.2,-0.6 -0.4,-1.1 -0.9,-0.8 -5.3,2.6 -9.6,6.1 -12.8,9.2 -0.6,0.6 -1.4,0.9 -2.2,0.9 -1.2,0 -2.4,-0.7 -3,-2.1 -0.5,-1.2 -0.1,-2.5 0.8,-3.3 7.1,-6.9 18.8,-15.1 34.2,-15.1 15.3,0 27,8.1 34.1,14.9 1.4,1.5 1.2,4.1 -0.8,5.2 z M 59.9,45 c 1,-2.7 -1.5,-5.1 -4.1,-4.1 -0.8,0.3 -1.4,0.9 -1.7,1.7 -1,2.7 1.5,5.1 4.1,4.1 0.8,-0.4 1.4,-1 1.7,-1.7 z"
         id="path66"
         inkscape:connector-curvature="0"
         style="display:inline" /></g><g
       display="none"
       id="g68"
       style="display:none"><path
         display="inline"
         d="m 75,65.6 c -3.5,0 -6.6,1.4 -8.9,3.7 L 37.2,52.7 c 0.2,-0.9 0.3,-1.8 0.3,-2.7 0,-1.3 -0.2,-2.6 -0.6,-3.7 l 29,-15.8 c 2.3,2.4 5.5,4 9.1,4 6.9,0 12.5,-5.6 12.5,-12.5 C 87.5,15.1 81.9,9.4 75,9.4 68.1,9.4 62.5,15 62.5,21.9 62.5,23 62.6,24 62.9,25 L 33.6,41 c -2.2,-2.1 -5.3,-3.5 -8.6,-3.5 -6.9,0 -12.5,5.6 -12.5,12.5 0,6.9 5.6,12.5 12.5,12.5 3.7,0 7.1,-1.7 9.4,-4.3 L 63,74.8 c -0.3,1.1 -0.5,2.2 -0.5,3.3 0,6.9 5.6,12.5 12.5,12.5 6.9,0 12.5,-5.6 12.5,-12.5 0,-6.9 -5.6,-12.5 -12.5,-12.5 z m 0,-50 c 3.4,0 6.2,2.8 6.2,6.2 0,3.4 -2.8,6.2 -6.2,6.2 -2.4,0 -4.4,-1.3 -5.5,-3.3 l 0,0 c -0.5,-0.9 -0.8,-1.9 -0.8,-3 0.1,-3.3 2.9,-6.1 6.3,-6.1 z M 25,56.2 c -3.4,0 -6.2,-2.8 -6.2,-6.2 0,-3.4 2.8,-6.2 6.2,-6.2 3.4,0 6.2,2.8 6.2,6.2 0,3.4 -2.8,6.2 -6.2,6.2 z m 50,28.2 c -3.4,0 -6.2,-2.8 -6.2,-6.2 0,-3.4 2.8,-6.2 6.2,-6.2 3.4,0 6.2,2.8 6.2,6.2 0,3.4 -2.8,6.2 -6.2,6.2 z"
         id="path70"
         inkscape:connector-curvature="0"
         style="display:inline" /></g><g
       display="none"
       id="g72"
       style="display:none"><path
         display="inline"
         d="m 36.9,25.9 c -1.3,-1.2 -1.3,-3.4 0,-4.6 L 47.8,10.4 c 1.2,-1.2 3.2,-1.2 4.4,0 l 10.9,10.9 c 1.3,1.3 1.3,3.4 0,4.6 -0.6,0.5 -1.3,0.8 -2.1,0.8 -0.8,0 -1.7,-0.3 -2.3,-0.9 L 53,20 53,59.3 c 0,1.7 -1.3,3.1 -3,3.1 -1.7,0 -3,-1.4 -3,-3.1 L 47,20 41.2,25.7 c -0.6,0.6 -1.4,0.9 -2.2,0.9 -0.8,0.1 -1.6,-0.2 -2.1,-0.7 z M 75,30 65,30 c -1.6,0 -3.1,1.1 -3.2,2.7 -0.2,1.9 1.2,3.3 3,3.3 l 8.6,0 c 0.9,0 1.6,0.6 1.6,1.5 l 0,45.3 C 75,83.7 74.3,84 73.4,84 L 26.6,84 C 25.7,84 25,83.7 25,82.8 L 25,37.5 C 25,36.6 25.7,36 26.6,36 l 8.4,0 c 1.6,0 3.1,-1.1 3.2,-2.7 C 38.4,31.4 36.9,30 35.1,30 L 25,30 c -3.5,0 -6,2.5 -6,5.9 l 0,48.4 c 0,3.5 2.5,6.6 6,6.6 l 50,0 c 3.5,0 6,-3.2 6,-6.6 L 81,35.9 C 81,32.5 78.5,30 75,30 Z"
         id="path74"
         inkscape:connector-curvature="0"
         style="display:inline" /></g><g
       display="none"
       id="g76"
       style="display:none"><path
         display="inline"
         d="m 50,40.6 c -1.7,0 -3,-1.4 -3,-3.1 l 0,-25 c 0,-1.7 1.3,-3.1 3,-3.1 1.7,0 3,1.4 3,3.1 l 0,25 c 0,1.7 -1.3,3.1 -3,3.1 z M 85.9,54.7 C 85.9,39.9 77.2,26.8 63.6,21.3 62,20.7 60.2,21.4 59.5,23 c -0.6,1.6 0.1,3.4 1.7,4.1 11.1,4.5 18.4,15.3 18.4,27.6 0,16.4 -13.3,29.7 -29.7,29.7 -16.4,0 -29.6,-13.3 -29.6,-29.7 0,-12.1 7.2,-22.9 18.5,-27.5 1.6,-0.7 2.4,-2.5 1.7,-4.1 C 39.8,21.5 38,20.7 36.4,21.4 22.8,27 14.1,40 14.1,54.7 c 0,19.8 16.1,35.9 35.9,35.9 19.8,0 35.9,-16.1 35.9,-35.9 z"
         id="path78"
         inkscape:connector-curvature="0"
         style="display:inline" /></g><g
       display="none"
       id="g80"
       style="display:none"><path
         display="inline"
         d="m 77.9,26.3 9.9,-9.9 c 1.2,-1.2 1.3,-3 0.3,-4.3 -1.2,-1.4 -3.3,-1.5 -4.6,-0.2 l -10,10 L 52.1,20 c -1.8,-0.2 -3.7,0.5 -5,1.8 L 12.8,56 c -2.4,2.4 -2.4,6.4 0,8.8 L 34.9,87 c 2.4,2.4 6.4,2.4 8.8,0 L 78,52.7 c 1.3,-1.3 2,-3.1 1.8,-5 L 77.9,26.3 Z M 59.2,40.6 c 1.2,1.2 1.2,3.2 0,4.4 -1.2,1.2 -3.2,1.2 -4.4,0 -1.2,-1.2 -1.2,-3.2 0,-4.4 1.2,-1.2 3.2,-1.2 4.4,0 z M 38.2,81.5 18.3,61.6 C 17.7,61 17.7,60 18.3,59.4 L 51,26.7 c 0.3,-0.3 0.8,-0.5 1.2,-0.5 l 12.2,1.1 c 1.3,0.1 1.9,1.7 1,2.7 L 61,34.3 c -3.6,-1.7 -8.2,-1 -11,2.2 -3.2,3.5 -3.1,9.1 0.1,12.6 3.6,3.9 9.8,4 13.5,0.3 2.9,-2.9 3.5,-7.2 1.8,-10.7 l 4.4,-4.4 c 0.9,-0.9 2.5,-0.4 2.7,1 l 1.1,12.2 c 0,0.5 -0.1,0.9 -0.5,1.2 L 40.4,81.5 c -0.6,0.6 -1.6,0.6 -2.2,0 z m 1.1,-12.2 c -1.2,1.2 -3.2,1.2 -4.4,0 l -4.4,-4.4 c -1.2,-1.2 -1.2,-3.2 0,-4.4 1.2,-1.2 3.2,-1.2 4.4,0 l 4.4,4.4 c 1.2,1.2 1.2,3.2 0,4.4 z m 13.2,-8.8 c 1.2,1.2 1.2,3.2 0,4.4 -1.2,1.2 -3.2,1.2 -4.4,0 L 34.9,51.6 c -1.2,-1.2 -1.2,-3.2 0,-4.4 1.2,-1.2 3.2,-1.2 4.4,0 l 13.2,13.3 z"
         id="path82"
         inkscape:connector-curvature="0"
         style="display:inline" /></g><g
       display="none"
       id="g84"
       style="display:none"><path
         display="inline"
         d="M 50,84.1 C 31.1,84.1 15.7,68.7 15.7,49.9 15.7,31.1 31.1,15.7 50,15.7 c 18.9,0 34.3,15.4 34.3,34.2 0,6.8 -2,13.3 -5.8,19 -0.9,1.4 -2.8,1.8 -4.2,0.8 -1.4,-0.9 -1.8,-2.8 -0.8,-4.2 3.1,-4.6 4.7,-10 4.7,-15.6 0,-15.5 -12.7,-28.1 -28.2,-28.1 -15.5,0 -28.2,12.6 -28.2,28.1 0,15.5 12.6,28.2 28.2,28.2 5.5,0 10.9,-1.6 15.5,-4.6 1.4,-0.9 3.3,-0.5 4.2,0.9 0.9,1.4 0.5,3.3 -0.9,4.2 -5.6,3.6 -12.1,5.5 -18.8,5.5 z M 65.7,48.2 52.5,35 C 51.8,34.3 50.8,34 49.9,34.1 49,34 48,34.3 47.3,35 L 34.1,48.2 c -1.1,1.1 -1.3,2.8 -0.5,4 1.1,1.7 3.4,1.8 4.8,0.5 l 7.2,-7.1 C 46.1,45.1 47,45.5 47,46.2 L 47,64 c 0,1.4 0.7,2.7 2,3.1 2.1,0.7 4,-0.9 4,-3 l 0,-17.7 c 0,-0.7 0.9,-1 1.4,-0.6 l 6.9,6.9 c 1.4,1.4 3.7,1.2 4.8,-0.5 0.9,-1.2 0.6,-2.9 -0.4,-4 z"
         id="path86"
         inkscape:connector-curvature="0"
         style="display:inline" /></g><g
       display="none"
       id="g88"
       style="display:none"><g
         display="inline"
         id="g90"
         style="display:inline"><path
           d="m 78.1,34.4 -56.2,0 c -3.5,0 -6.2,2.8 -6.2,6.2 l 0,43.8 c 0,3.5 2.8,6.2 6.2,6.2 l 56.2,0 c 3.5,0 6.2,-2.8 6.2,-6.2 l 0,-43.8 c 0.1,-3.4 -2.7,-6.2 -6.2,-6.2 z m -1.5,50 -53.2,0 c -0.9,0 -1.6,-0.7 -1.6,-1.6 l 0,-40.6 c 0,-0.9 0.7,-1.6 1.6,-1.6 l 3.1,0 c 0.9,0 1.6,0.7 1.6,1.6 l 0,32.7 c 0,1.6 1.2,3.1 2.8,3.2 1.9,0.2 3.4,-1.3 3.4,-3.1 l 0,-32.8 c 0,-0.9 0.7,-1.6 1.6,-1.6 l 40.6,0 c 0.9,0 1.6,0.7 1.6,1.6 l 0,40.6 c 0,0.9 -0.7,1.6 -1.5,1.6 z"
           id="path92"
           inkscape:connector-curvature="0" /><path
           d="m 34.4,25 c 0,-4.6 3.3,-8.4 7.6,-9.2 0.7,-0.1 1.2,0.6 0.8,1.2 -1.4,2.3 -2.2,5.1 -2.2,8 l 0,3.1 c 0,1.7 1.4,3.1 3.1,3.1 l 0,0 c 1.7,0 3.1,-1.4 3.1,-3.1 l 0,-3.1 c 0,-2.1 0.7,-4 1.9,-5.6 0.6,-0.8 1.9,-0.8 2.5,0 1.2,1.6 1.9,3.5 1.9,5.6 l 0,3.1 c 0,1.7 1.4,3.1 3.1,3.1 l 0,0 c 1.7,0 3.1,-1.4 3.1,-3.1 l 0,-3.1 c 0,-2.9 -0.8,-5.7 -2.2,-8 0.5,-0.8 0.3,-0.4 0.8,-1.2 4.3,0.8 7.6,4.6 7.6,9.2 l 0,3.1 c 0,1.7 1.4,3.1 3.1,3.1 l 0,0 c 1.7,0 3.1,-1.4 3.1,-3.1 l 0,-2.7 c 0,-8.2 -6.1,-15.3 -14.2,-16 -2.7,-0.3 -5.4,0.2 -7.7,1.2 0,0 0,0 0,0 -2.3,-1 -4.9,-1.5 -7.7,-1.2 -8.1,0.7 -14.2,7.8 -14.2,16 l 0,2.7 c 0,1.7 1.4,3.1 3.1,3.1 l 0,0 c 1.7,0 3.1,-1.4 3.1,-3.1 l 0,-3.1 z"
           id="path94"
           inkscape:connector-curvature="0" /></g></g><g
       display="none"
       id="g96"
       style="display:none"><path
         display="inline"
         d="m 71.9,43.8 0,40.6 c 0,3.5 -2.8,6.2 -6.2,6.2 l -31.9,0 c -3.1,0 -5.7,-2.5 -5.7,-5.7 l 0,-41.1 c 0,-2.3 2.5,-4 5,-2.6 0.8,0.5 1.3,1.4 1.3,2.3 l 0,39.4 c 0,0.9 0.7,1.6 1.6,1.6 l 28.1,0 c 0.9,0 1.6,-0.7 1.6,-1.6 l 0,-39.4 c 0,-0.9 0.5,-1.8 1.3,-2.3 2.4,-1.5 4.9,0.2 4.9,2.6 z m -15.7,28.1 -12.4,0 c -1.7,0 -3.1,1.4 -3.1,3.1 0,1.7 1.4,3.1 3.1,3.1 l 12.5,0 c 1.7,0 3.1,-1.4 3.1,-3.1 0,-1.7 -1.4,-3.1 -3.2,-3.1 z m 0,-12.5 -12.4,0 c -1.7,0 -3.1,1.4 -3.1,3.1 0,1.7 1.4,3.1 3.1,3.1 l 12.5,0 c 1.7,0 3.1,-1.4 3.1,-3.1 0,-1.7 -1.4,-3.1 -3.2,-3.1 z m 0,-12.5 -12.4,0 c -1.7,0 -3.1,1.4 -3.1,3.1 0,1.7 1.4,3.1 3.1,3.1 l 12.5,0 c 1.7,0 3.1,-1.4 3.1,-3.1 0,-1.7 -1.4,-3.1 -3.2,-3.1 z M 28.1,34.4 c 0,-1.7 1.4,-3.1 3.1,-3.1 0,-5.8 4,-10.7 9.4,-12.1 l 0,-3.5 c 0,-5.2 4.2,-9.4 9.4,-9.4 5.2,0 9.4,4.2 9.4,9.4 l 0,3.5 c 5.4,1.4 9.4,6.3 9.4,12.1 1.7,0 3.1,1.4 3.1,3.1 0,1.7 -1.4,3.1 -3.1,3.1 l -37.6,0 c -1.7,0 -3.1,-1.4 -3.1,-3.1 z m 9.4,-3.2 25,0 c 0,-3.4 -2.8,-6.2 -6.2,-6.3 0,0 0,0 0,0 -1.7,0 -3.1,-1.4 -3.1,-3.1 l 0,-6.2 c 0,-1.8 -1.6,-3.3 -3.4,-3.1 -1.6,0.2 -2.8,1.6 -2.8,3.2 l 0,6.1 c 0,1.7 -1.4,3.1 -3.1,3.1 l 0,0 c -3.6,0.1 -6.4,2.9 -6.4,6.3 z"
         id="path98"
         inkscape:connector-curvature="0"
         style="display:inline" /></g><g
       display="none"
       id="g100"
       style="display:none"><path
         display="inline"
         d="M 50,84.1 C 31.1,84.1 15.7,68.7 15.7,49.9 15.7,31.1 31.1,15.7 50,15.7 c 18.9,0 34.3,15.4 34.3,34.2 0,6.8 -2,13.3 -5.8,19 -0.9,1.4 -2.8,1.8 -4.2,0.8 -1.4,-0.9 -1.8,-2.8 -0.8,-4.2 3.1,-4.6 4.7,-10 4.7,-15.6 0,-15.5 -12.7,-28.1 -28.2,-28.1 -15.5,0 -28.2,12.6 -28.2,28.1 0,15.5 12.6,28.2 28.2,28.2 5.5,0 10.9,-1.6 15.5,-4.6 1.4,-0.9 3.3,-0.5 4.2,0.9 0.9,1.4 0.5,3.3 -0.9,4.2 -5.6,3.6 -12.1,5.5 -18.8,5.5 z M 66.1,47.8 C 65,46.1 62.7,46 61.3,47.3 l -6.9,6.9 C 53.9,54.7 53,54.3 53,53.6 l 0,-17.7 c 0,-2 -1.8,-3.6 -4,-3 -1.3,0.4 -2,1.7 -2,3.1 l 0,17.8 c 0,0.7 -0.9,1 -1.4,0.6 l -7.1,-7.1 c -1.4,-1.4 -3.7,-1.2 -4.8,0.5 -0.9,1.3 -0.6,3 0.5,4 L 47.3,65 c 0.7,0.7 1.7,1 2.6,0.9 0.9,0.1 1.9,-0.2 2.6,-0.9 L 65.7,51.8 c 1,-1.1 1.3,-2.8 0.4,-4 z"
         id="path102"
         inkscape:connector-curvature="0"
         style="display:inline" /></g><g
       display="none"
       id="g104"
       style="display:none"><path
         display="inline"
         d="m 40.6,78.1 c 0,3.5 -2.8,6.2 -6.2,6.2 -3.4,0 -6.2,-2.8 -6.2,-6.2 0,-3.4 2.8,-6.2 6.2,-6.2 3.4,0 6.2,2.8 6.2,6.2 z m 31.3,-6.2 c -3.5,0 -6.2,2.8 -6.2,6.2 0,3.4 2.8,6.2 6.2,6.2 3.4,0 6.2,-2.8 6.2,-6.2 0,-3.4 -2.8,-6.2 -6.2,-6.2 z M 37.6,28 c -1.6,0 -3.3,1 -3.3,3 0,2.1 1.3,3 3.1,3 l 44,0 c 1,0 1.8,1.1 1.5,2.1 l -4.1,16.4 c -0.1,0.6 -0.6,1.1 -1.2,1.2 l -39.7,8 c -0.8,0.2 -1.6,-0.3 -1.8,-1.1 L 24.9,21.1 C 24.5,19.8 23.3,19 21.9,19 l -9.2,0 c -1.6,0 -3.1,1.1 -3.2,2.7 -0.2,1.9 1.3,3.3 3.1,3.3 l 5.8,0 c 0.7,0 1.3,0.5 1.5,1.1 l 10.7,37.8 c 0.9,3.2 4.1,5.1 7.3,4.4 L 80,59.7 c 2.4,-0.5 4.3,-2.3 4.8,-4.6 L 90,33.9 C 90.7,30.9 88.5,28 85.4,28 l -47.8,0 z"
         id="path106"
         inkscape:connector-curvature="0"
         style="display:inline" /></g><g
       display="none"
       id="g108"
       style="display:none"><path
         display="inline"
         d="m 56.2,37.5 c 0,3.5 -2.8,6.2 -6.2,6.2 -3.4,0 -6.2,-2.8 -6.2,-6.2 0,-3.4 2.8,-6.2 6.2,-6.2 3.4,0 6.2,2.7 6.2,6.2 z m -4.1,58.6 c 0.6,-0.5 2.3,-2 3.5,-2.8 L 56,93 c 2.2,-1.5 6.4,-4.2 6.4,-11.7 l 0,0 c 0,-1.7 -1.4,-3.1 -3.1,-3.1 l 0,0 c -1.7,0 -3.1,1.4 -3.1,3.1 l 0,0 c 0,4.1 -1.7,5.2 -3.6,6.5 L 52.2,88 C 51.5,88.5 50.7,89.1 50,89.6 49.3,89 48.5,88.5 47.8,88 l -0.4,-0.2 c -2.2,-1.4 -3.7,-2.3 -3.7,-6.5 l 0,0 c 0,-1.7 -1.4,-3.1 -3.1,-3.1 l 0,0 c -1.7,0 -3.1,1.4 -3.1,3.1 l 0,0 c 0,7.6 4,10.1 6.6,11.8 l 0.3,0.2 c 1.6,1 3.4,2.7 3.4,2.8 l 2.1,2 2.2,-2 z M 82,71.9 c 0,3 -0.9,5.9 -2.5,8.5 -0.5,0.8 -1.4,1.3 -2.4,1.4 -0.1,0 -0.1,0 -0.2,0 -0.9,0 -1.8,-0.4 -2.4,-1.1 C 70.9,76.5 67.4,75 61.7,75 c -0.2,0 -0.4,0 -0.6,-0.1 l 0,0.1 -8,0 0,3.1 c 0,1.7 -1.3,3.1 -3,3.1 -1.7,0 -3,-1.4 -3,-3.1 l 0,-3.1 -6.4,0 c -5.7,0 -9.2,1.5 -12.8,5.7 -0.6,0.7 -1.5,1.1 -2.4,1.1 -0.1,0 -0.1,0 -0.2,0 -1,-0.1 -1.9,-0.6 -2.4,-1.4 -1.6,-2.5 -2.5,-5.5 -2.5,-8.5 0,-7.3 5,-13.4 11.8,-15.1 -0.5,-3 -0.8,-6.3 -0.8,-9.9 0,-15.5 9.7,-37.5 18.8,-37.5 5.9,0 10.7,8.3 13,13.2 3.6,7.7 5.8,16.8 5.8,24.3 0,3.5 -0.3,6.6 -0.7,9.5 7.6,0.7 13.7,7.4 13.7,15.5 z M 35.7,69.2 c -0.6,-1.3 -1.2,-2.9 -1.8,-4.7 -0.3,-0.9 -1.3,-1.4 -2.2,-0.9 -3.1,1.5 -5.2,4.7 -5.2,8.4 0,0.4 0,0.9 0.1,1.3 2.7,-2.2 5.7,-3.5 9.1,-4.1 z M 57.6,69 c 1.6,-3 4.9,-10.9 4.9,-22 0,-6.6 -1.9,-14.8 -5.2,-21.7 -3.4,-7.3 -6.6,-9.7 -7.3,-9.7 -2.7,0 -12.5,16.5 -12.5,31.2 0,4.1 0.5,7.8 1.2,11 0.3,0.5 0.4,1 0.4,1.5 0,0.1 0,0.2 0,0.3 1.1,4.4 2.5,7.3 3.4,9.3 l 4.5,0 0,-9.6 c 0,-1.7 1.3,-3.1 3,-3.1 1.7,0 3,1.4 3,3.1 l 0,9.7 4.6,0 z m 18.2,2.9 c 0,-4.6 -3.3,-8.4 -7.7,-9.2 -0.8,-0.1 -1.6,0.3 -1.8,1.1 -0.6,2 -1.3,3.7 -1.9,5.1 4.4,0.4 8,1.7 11.3,4.3 0.1,-0.5 0.1,-0.9 0.1,-1.3 z"
         id="path110"
         inkscape:connector-curvature="0"
         style="display:inline" /></g><g
       display="none"
       id="g112"
       style="display:none"><path
         display="inline"
         d="M 50,9.4 C 27.6,9.4 9.4,27.6 9.4,50 9.4,72.4 27.6,90.6 50,90.6 72.4,90.6 90.6,72.4 90.6,50 90.6,27.6 72.4,9.4 50,9.4 Z m 28.8,21.8 c -0.6,0 -1.3,0 -1.9,0 -0.7,0 -1.3,0 -1.8,0 -1.6,0 -2.6,-0.3 -3.1,-0.5 0.1,-3.2 0.6,-4.7 1.5,-5.9 1.9,1.9 3.7,4.1 5.3,6.4 z M 41,16.8 c 0,0 1.2,2.1 1.5,2.3 0.2,0.1 0.4,0.4 0.4,0.6 0,0.1 0,0.1 0,0.2 0,0.8 0,3 2.1,4.5 1.1,0.8 2.4,0.9 3.6,0.9 0.3,0 0.9,0.1 1.3,0.1 -0.1,1.9 -0.6,2.7 -1.3,3.7 -0.8,1.1 -1.8,2.6 -1.8,5.1 -0.9,0.1 -2.5,0.1 -3.1,0.1 -3.8,0 -9.4,3.3 -9.4,9.4 0,6.5 4.7,9.4 9.4,9.4 1.4,0 3.7,0.8 4.9,1.7 0.6,0.5 1.4,1 1.4,4.6 0,1.7 0,2.6 -5.2,7 -3.5,3 -6.7,7.7 -9.1,11.7 -2.1,-3.4 -4.5,-9.9 -4.5,-12.5 0,-3.1 0.7,-4.3 1.6,-5.7 0.5,-0.8 1,-1.6 1.4,-2.7 1.4,-4.2 0,-8.7 -3.9,-12.6 -0.7,-0.7 -1.5,-1.4 -2.2,-2 C 25.9,40.8 25,40 25,37.5 c 0,0 -0.6,-5.8 -0.8,-8.6 -0.1,-1.3 0.8,-2.3 0.8,-2.3 0,0 9,-7.9 16,-9.8 z M 15.8,50 c 0,-5.1 1.2,-9.9 3.2,-14.3 l 0,1.8 c 0,5.5 2.9,8 5.3,10 0.6,0.5 1.2,1 1.7,1.6 2.2,2.2 3,4.3 2.3,6.2 -0.1,0.4 -0.4,0.8 -0.8,1.4 -1.1,1.7 -2.5,4.1 -2.5,9 0,1.7 1.1,6.2 2.9,10.6 C 20.5,70 15.8,60.5 15.8,50 Z m 24,32.8 c 2.2,-3.7 5.8,-8.9 9.1,-11.7 5.4,-4.6 7.3,-7.1 7.3,-11.8 0,-4.8 -1.1,-7.5 -3.9,-9.6 -2.2,-1.7 -5.9,-2.9 -8.6,-2.9 -3.1,0 -3.1,-2.2 -3.1,-3.1 0,-2.2 2.4,-3.1 3.1,-3.1 3.5,0 6,-0.1 7.8,-2 1.1,-1.1 1.6,-2.5 1.6,-4.3 0,-0.5 0.1,-0.7 0.7,-1.6 1,-1.4 2.4,-3.5 2.4,-7.7 0,-5.3 -5.2,-5.7 -7.1,-5.9 0,0 0,-0.1 0,-0.1 -0.2,-1.2 -0.6,-2.3 -1.3,-3.3 0.7,0 1.4,-0.1 2.2,-0.1 6.8,0 13.1,2 18.4,5.4 -2.4,3.1 -2.8,6.8 -2.8,10.2 0,3.8 3.7,6.2 9.4,6.2 0.5,0 1.2,0 1.9,0 1.5,0 3.1,0 4.2,0 0,0 0.1,0 0.1,0 0.2,0 0.5,0 0.7,-0.1 0.4,1 0.8,2.1 1.1,3.2 -6.7,0.1 -20.6,0.8 -20.6,12.5 0,7.4 4,9.8 6.4,11.2 0.4,0.3 0.8,0.5 1.2,0.7 0.6,0.4 1.5,2.3 1.8,10.2 0,0.5 0,0.9 0,1.3 -5.9,4.9 -13.6,7.9 -21.9,7.9 -4.5,0.1 -10.1,-1.5 -10.1,-1.5 z m 38,-12.6 C 77.4,65.8 76.4,61.9 73.7,60 73.2,59.6 72.6,59.3 72.1,59 70,57.8 68.8,57 68.8,53.2 68.8,50 70.7,47 84.3,47 c 0.1,1 0.1,2.1 0.1,3.1 0,7.4 -2.5,14.4 -6.6,20.1 z"
         id="path114"
         inkscape:connector-curvature="0"
         style="display:inline" /></g><g
       display="none"
       id="g116"
       style="display:none"><path
         display="inline"
         d="M 50,9.4 C 27.6,9.4 9.4,27.6 9.4,50 9.4,72.4 27.6,90.6 50,90.6 72.4,90.6 90.6,72.4 90.6,50 90.6,27.6 72.4,9.4 50,9.4 Z M 84.4,50 c 0,1.1 -0.1,2.1 -0.1,3.1 -1.9,0 -2.7,-1 -4.2,-3.5 -1.5,-2.5 -3.5,-5.8 -8.2,-5.8 -1.8,0 -3.2,0.5 -4.3,1.6 -1.8,1.8 -1.7,4.3 -1.7,6.5 0,1.3 0,2.5 -0.2,3.7 -1.6,7 -4.5,15.4 -6.4,18.6 0,0 0,0 0,0 -0.3,-0.9 -0.5,-1.8 -0.7,-2.7 -1.3,-5 -2.9,-10.6 -7.7,-12 -2,-0.5 -4,-1.7 -4,-6.3 0,-5.1 1.7,-6.2 9.4,-6.2 l 1.6,0 c 4.3,0 7.8,-3.7 7.8,-8 0,-4.3 -3.5,-8 -7.8,-8 l -1.6,0 c -1.6,0 -2.6,-0.2 -3.1,-0.4 0,-1 0,-1.8 0.1,-2.3 0.2,-0.1 0.5,-0.2 1.1,-0.4 l 0.2,-0.1 c 0.3,-0.1 6.5,-3.3 7.8,-9.9 12.8,4.9 22,17.5 22,32.1 z M 26.8,24.7 c 0.5,0.3 0.9,0.5 1.2,0.6 0,0 0.1,0 0.1,0.1 -0.1,2 -0.6,2.8 -1.3,3.8 -0.8,1.1 -1.8,2.6 -1.8,5.1 -0.9,0.1 -2.5,0.1 -3.1,0.1 -0.9,0 -1.8,0.2 -2.7,0.5 1.8,-3.9 4.4,-7.3 7.6,-10.2 z m -5.9,43.6 c -3.2,-5 -5.1,-11 -5.3,-17.3 1.7,1.4 4,2.1 6.2,2.1 1.4,0 3.7,0.8 4.9,1.7 0.6,0.5 1.4,1 1.4,4.6 0,1.7 0,2.6 -5.2,7 -0.6,0.5 -1.3,1.2 -2,1.9 z M 50,84.4 c -9.9,0 -18.9,-4.2 -25.2,-11 0.8,-0.9 1.5,-1.6 2.2,-2.2 5.4,-4.6 7.3,-7.1 7.3,-11.8 0,-4.8 -1.1,-7.5 -3.9,-9.6 -2.2,-1.7 -5.9,-2.9 -8.6,-2.9 -3.1,0 -3.1,-2.2 -3.1,-3.1 0,-2.2 2.4,-3.1 3.1,-3.1 3.5,0 6,-0.1 7.8,-2 1.1,-1.1 1.6,-2.5 1.6,-4.3 0,-0.5 0.1,-0.7 0.7,-1.6 1,-1.4 2.4,-3.5 2.4,-7.7 0,-2.3 -1,-3.6 -2.1,-4.4 5.2,-3.1 11.2,-4.9 17.7,-4.9 2.1,0 4.2,0.2 6.2,0.6 -0.3,3.6 -3.8,5.6 -4.4,6 -4.6,1.8 -4.9,4 -4.9,9.3 0,3.8 3.7,6.5 9.4,6.5 l 1.6,0 c 0.9,0 1.6,0.6 1.6,1.5 0,0.9 -0.7,1.3 -1.6,1.3 l -1.6,0 c -5.5,0 -15.6,-0.2 -15.6,12.3 0,3.7 1.1,10.2 8.5,12.3 1.4,0.4 2.5,4.7 3.3,7.5 0.3,0.9 0.5,1.9 0.8,2.8 1.4,4.8 4.8,5.4 6.1,5.4 3.1,0 5.4,-2.9 8.2,-10.3 1.8,-4.8 3.5,-10.5 4.2,-14 0.4,-1.9 0.4,-3.7 0.4,-5.1 0,-0.5 0,-1.3 0,-1.8 0.8,0.1 1.3,0.7 2.5,2.8 1.4,2.4 3.6,6 8.4,6.5 -4,14.3 -17.3,25 -33,25 z"
         id="path118"
         inkscape:connector-curvature="0"
         style="display:inline" /></g><g
       display="none"
       id="g120"
       style="display:none"><path
         display="inline"
         d="m 90.6,34.4 c 0,-2.4 -1.1,-3.8 -2,-4.6 -2,-1.8 -5.3,-2.3 -10.9,-1.6 -1.7,0.2 -2.9,1.8 -2.7,3.5 0.2,1.7 1.8,2.9 3.5,2.7 3.8,-0.5 5.6,-0.5 5.8,0 C 83.9,35.5 81,38 76.6,40.9 72.8,29.9 62.3,21.9 50,21.9 35.9,21.9 24.2,32.3 22.2,45.9 22,46 21.9,46 21.7,46.1 11.2,52.3 6.8,57.5 8.5,62 c 1.1,3.1 4.6,4.6 10.6,4.6 1.9,0 4,-0.1 6.3,-0.4 0.5,-0.1 1,-0.1 1.5,-0.2 5.1,7.3 13.5,12.2 23.1,12.2 15.5,0 28.1,-12.6 28.1,-28.1 0,-0.9 0,-1.8 -0.1,-2.6 7.5,-4.8 12.6,-9.5 12.6,-13.1 z m -61,8.2 c 0.5,-1.2 1.6,-2 2.9,-2 l 23.6,0 c 1.6,0 3.1,-1.2 3.2,-2.8 0.2,-1.9 -1.3,-3.4 -3.1,-3.4 l -19.4,0 c -0.7,0 -1.1,-0.9 -0.5,-1.4 3.8,-3 8.5,-4.9 13.7,-4.9 10.1,0 18.5,6.8 21.1,16.1 -1.6,0.9 -3.3,1.8 -5.1,2.7 l -31.5,0 c -1.6,0 -3.1,1.2 -3.2,2.8 -0.2,1.9 1.3,3.4 3.1,3.4 l 16.8,0 c -8.2,3 -15.3,4.9 -21.1,6 -1.3,-2.8 -2,-5.8 -2,-9.1 0,-2.6 0.6,-5.1 1.5,-7.4 z M 14.5,59.8 c 0.4,-1 2.3,-3.2 7.5,-6.6 0.3,2.4 0.8,4.7 1.7,6.8 -4.8,0.6 -8,0.4 -9.2,-0.2 z M 50,71.9 c -2.9,0 -5.7,-0.6 -8.2,-1.6 C 41,70 41.2,68.8 42.1,68.8 l 14.1,0 c 1.6,0 3.1,-1.2 3.2,-2.8 0.2,-1.9 -1.3,-3.4 -3.1,-3.4 l -13.8,0 c 3.8,-1.1 7.7,-2.3 11.6,-3.8 4.5,-1.6 9,-3.5 13.3,-5.6 l 3.3,0 c 0.5,0 0.9,0.4 0.8,0.9 C 69.6,64.2 60.7,71.9 50,71.9 Z"
         id="path122"
         inkscape:connector-curvature="0"
         style="display:inline" /></g><g
       display="none"
       id="g124"
       style="display:none"><path
         display="inline"
         d="m 46.9,68.8 0,-14.1 c 0,-0.9 -0.7,-1.6 -1.6,-1.6 l -14.1,0 c -1.8,0 -3.3,-1.6 -3.1,-3.4 0.2,-1.6 1.6,-2.8 3.2,-2.8 l 13.9,0 c 0.9,0 1.6,-0.7 1.6,-1.6 l 0,-14.1 c 0,-1.8 1.6,-3.3 3.4,-3.1 1.6,0.2 2.8,1.6 2.8,3.2 l 0,13.9 c 0,0.9 0.7,1.6 1.6,1.6 l 14.1,0 c 1.8,0 3.3,1.6 3.1,3.4 -0.2,1.6 -1.6,2.8 -3.2,2.8 l -13.9,0 c -0.9,0 -1.6,0.7 -1.6,1.6 l 0,13.9 c 0,1.6 -1.2,3.1 -2.8,3.2 -1.9,0.3 -3.4,-1.1 -3.4,-2.9 z M 50,9.4 C 27.6,9.4 9.4,27.6 9.4,50 c 0,22.4 18.2,40.6 40.6,40.6 10.2,0 20,-3.8 27.6,-10.8 1.3,-1.2 1.3,-3.1 0.2,-4.4 C 76.6,74.1 74.7,74.1 73.4,75.2 67,81.1 58.7,84.4 50.1,84.4 31,84.4 15.6,69 15.6,50 15.6,31 31,15.6 50,15.6 69,15.6 84.4,31 84.4,50 c 0,5.7 -1.4,11.4 -4.2,16.4 -0.8,1.5 -0.3,3.4 1.2,4.2 1.5,0.8 3.4,0.3 4.2,-1.2 C 88.8,63.5 90.5,56.8 90.5,50 90.6,27.6 72.4,9.4 50,9.4 Z"
         id="path126"
         inkscape:connector-curvature="0"
         style="display:inline" /></g><g
       display="none"
       id="g128"
       style="display:none"><path
         display="inline"
         d="m 81.1,46.9 -51,0 C 28.7,46.9 28,45.2 29,44.2 l 7.6,-7.6 c 1.2,-1.2 1.2,-3.2 0,-4.4 -1.2,-1.2 -3.2,-1.2 -4.4,0 L 16.5,47.8 c -1.2,1.2 -1.2,3.2 0,4.4 L 32,67.7 c 0.6,0.6 1.4,0.9 2.2,0.9 0.8,0 1.6,-0.3 2.2,-0.9 1.2,-1.2 1.2,-3.2 0,-4.4 L 29,55.8 c -1,-1 -0.3,-2.7 1.1,-2.7 l 51.2,0 c 1.8,0 3.3,-1.6 3.1,-3.4 -0.2,-1.6 -1.7,-2.8 -3.3,-2.8 z"
         id="path130"
         inkscape:connector-curvature="0"
         style="display:inline" /></g><g
       display="none"
       id="g132"
       style="display:none"><g
         display="inline"
         id="g134"
         style="display:inline"><path
           d="M 50,12.5 C 29.3,12.5 12.5,29.3 12.5,50 12.5,70.7 29.3,87.5 50,87.5 70.7,87.5 87.5,70.7 87.5,50 87.5,29.3 70.7,12.5 50,12.5 Z m 4.5,6.6 c 1,0.1 1.6,1.2 1.2,2.1 -1,2.2 -3.2,3.8 -5.7,3.8 -2.5,0 -4.8,-1.6 -5.7,-3.8 -0.4,-0.9 0.2,-2 1.2,-2.1 1.5,-0.2 3,-0.3 4.5,-0.3 1.5,0 3,0.1 4.5,0.3 z M 37.8,78.8 c -3.1,-1.3 -5.9,-3.1 -8.4,-5.3 -0.6,-0.5 -0.7,-1.4 -0.2,-2 1.5,-2.2 4.4,-3.3 7.2,-2.4 1.5,0.5 2.7,1.6 3.5,3 1,2 0.9,4.3 -0.1,6 -0.4,0.7 -1.2,1 -2,0.7 z M 50,81.2 c -0.8,0 -1.7,0 -2.5,-0.1 -1,-0.1 -1.7,-1.1 -1.3,-2.1 0.5,-1.3 0.7,-2.7 0.7,-4.1 0,-6.9 -5.6,-12.5 -12.5,-12.5 -3.4,0 -6.5,1.4 -8.8,3.7 -0.7,0.7 -1.9,0.6 -2.5,-0.3 -2.8,-4.7 -4.3,-10.1 -4.3,-15.9 0,-12.2 7,-22.8 17.3,-28 0.8,-0.4 1.9,0 2.2,0.9 1.7,4.8 6.4,8.3 11.8,8.3 5.4,0 10.1,-3.5 11.8,-8.3 0.3,-0.9 1.3,-1.3 2.2,-0.9 10.2,5.1 17.3,15.7 17.3,28 C 81.2,67.2 67.2,81.2 50,81.2 Z"
           id="path136"
           inkscape:connector-curvature="0" /><path
           d="M 62.5,40.6 C 55.6,40.6 50,46.2 50,53.1 50,60 55.6,65.6 62.5,65.6 69.4,65.6 75,60 75,53.1 75,46.2 69.4,40.6 62.5,40.6 Z m 0,18.8 c -3.4,0 -6.2,-2.8 -6.2,-6.2 0,-3.4 2.8,-6.2 6.2,-6.2 3.4,0 6.2,2.8 6.2,6.2 0,3.4 -2.8,6.2 -6.2,6.2 z"
           id="path138"
           inkscape:connector-curvature="0" /><path
           d="m 36,35.6 c -1.5,-0.9 -3.4,-0.4 -4.3,1.1 -0.9,1.5 -0.4,3.4 1.1,4.3 1,0.6 1.6,1.6 1.6,2.7 0,1.7 -1.4,3.1 -3.1,3.1 -0.6,0 -1.1,-0.1 -1.6,-0.4 -1.5,-0.9 -3.4,-0.3 -4.3,1.2 -0.9,1.5 -0.3,3.4 1.2,4.3 1.4,0.8 3,1.2 4.7,1.2 5.2,0 9.4,-4.2 9.4,-9.4 -0.1,-3.3 -1.9,-6.4 -4.7,-8.1 z"
           id="path140"
           inkscape:connector-curvature="0" /></g></g><g
       display="none"
       id="g142"
       style="display:none"><path
         display="inline"
         d="m 68.6,53 -13.9,0 -9.4,0 -14.1,0 c -1.8,0 -3.3,-1.4 -3.1,-3.3 0.2,-1.6 1.6,-2.7 3.2,-2.7 l 13.9,0 9.4,0 14.1,0 c 1.8,0 3.3,1.4 3.1,3.3 -0.1,1.6 -1.6,2.7 -3.2,2.7 z M 50,9.4 C 27.6,9.4 9.4,27.6 9.4,50 c 0,22.4 18.2,40.6 40.6,40.6 10.2,0 20,-3.8 27.6,-10.8 1.3,-1.2 1.3,-3.1 0.2,-4.4 C 76.6,74.1 74.7,74.1 73.4,75.2 67,81.1 58.7,84.4 50.1,84.4 31,84.4 15.6,69 15.6,50 15.6,31 31,15.6 50,15.6 69,15.6 84.4,31 84.4,50 c 0,5.7 -1.4,11.4 -4.2,16.4 -0.8,1.5 -0.3,3.4 1.2,4.2 1.5,0.8 3.4,0.3 4.2,-1.2 C 88.8,63.5 90.5,56.8 90.5,50 90.6,27.6 72.4,9.4 50,9.4 Z"
         id="path144"
         inkscape:connector-curvature="0"
         style="display:inline" /></g><g
       display="none"
       id="g146"
       style="display:none"><path
         display="inline"
         d="m 71,35.3 c 1.2,1.2 1.2,3.2 0,4.4 l -25,25 c -0.6,0.6 -1.4,0.9 -2.2,0.9 -0.8,0 -1.6,-0.3 -2.2,-0.9 L 29,52.2 C 27.8,51 27.8,49 29,47.8 c 1.2,-1.2 3.2,-1.2 4.4,0 L 43.7,58.1 66.5,35.3 c 1.3,-1.2 3.2,-1.2 4.5,0 z M 50,9.4 C 27.6,9.4 9.4,27.6 9.4,50 c 0,22.4 18.2,40.6 40.6,40.6 10.2,0 20,-3.8 27.6,-10.8 1.3,-1.2 1.3,-3.1 0.2,-4.4 C 76.6,74.1 74.7,74.1 73.4,75.2 67,81.1 58.7,84.4 50.1,84.4 31,84.4 15.6,69 15.6,50 15.6,31 31,15.6 50,15.6 69,15.6 84.4,31 84.4,50 c 0,5.7 -1.4,11.4 -4.2,16.4 -0.8,1.5 -0.3,3.4 1.2,4.2 1.5,0.8 3.4,0.3 4.2,-1.2 C 88.8,63.5 90.5,56.8 90.5,50 90.6,27.6 72.4,9.4 50,9.4 Z"
         id="path148"
         inkscape:connector-curvature="0"
         style="display:inline" /></g><g
       display="none"
       id="g150"
       style="display:none"><path
         display="inline"
         d="m 50,72 0,19 m 3,-0.4 0,-18.7 c 0,-1.7 -1.3,-3.1 -3,-3.1 -1.7,0 -3,1.4 -3,3.1 l 0,18.8 c 0,1.7 1.3,3.1 3,3.1 1.7,0 3,-1.4 3,-3.2 z m 22,-31 c 0,-0.8 -0.6,-1.7 -1.1,-2.3 L 62,42.7 62,29.2 74.1,14.4 c 0.8,-0.9 1,-2.4 0.5,-3.5 -0.5,-1.1 -1.5,-2 -2.7,-2 l -43.8,0 c -1.2,0 -2.3,0.9 -2.8,2 -0.5,1.1 -0.6,2.5 0.1,3.4 L 37,29.2 37,42.6 25.4,57.4 c -0.8,0.9 -0.8,2.5 -0.3,3.6 0.5,1.1 1.7,2 2.9,2 l 43.8,0 c 0,0 0,0 0,0 1.8,0 3.2,-1.6 3.2,-3.4 z M 43.2,45.6 C 43.6,45 44,44.5 44,43.8 l 0,-15.7 c 0,-0.7 -0.4,-1.2 -0.8,-1.8 L 34.6,16 65.3,16 56.7,26.4 c -0.4,0.6 -0.8,1.1 -0.8,1.8 l 0,15.6 c 0,0.7 0.4,1.3 0.8,1.8 L 65.4,56 34.6,56 43.2,45.6 Z"
         id="path152"
         inkscape:connector-curvature="0"
         style="display:inline" /></g><g
       display="none"
       id="g154"
       style="display:none"><path
         display="inline"
         d="m 61,65.5 -11,-11 -11,11 c -1.3,1.3 -3.4,1.2 -4.6,-0.2 -1,-1.3 -0.9,-3.1 0.3,-4.3 l 11,-11 -11,-11 c -1.3,-1.3 -1.2,-3.4 0.2,-4.6 1.3,-1 3.1,-0.9 4.3,0.3 l 11,11 11,-11 c 1.3,-1.3 3.4,-1.2 4.6,0.2 1,1.3 0.9,3.1 -0.3,4.3 l -11,11 11,11 c 1.2,1.2 1.3,3 0.3,4.3 -1.3,1.2 -3.5,1.3 -4.8,0 z M 50,9.4 C 27.6,9.4 9.4,27.6 9.4,50 c 0,22.4 18.2,40.6 40.6,40.6 10.2,0 20,-3.8 27.6,-10.8 1.3,-1.2 1.3,-3.1 0.2,-4.4 C 76.6,74.1 74.7,74.1 73.4,75.2 67,81.1 58.7,84.4 50.1,84.4 31,84.4 15.6,69 15.6,50 15.6,31 31,15.6 50,15.6 69,15.6 84.4,31 84.4,50 c 0,5.7 -1.4,11.4 -4.2,16.4 -0.8,1.5 -0.3,3.4 1.2,4.2 1.5,0.8 3.4,0.3 4.2,-1.2 C 88.8,63.5 90.5,56.8 90.5,50 90.6,27.6 72.4,9.4 50,9.4 Z"
         id="path156"
         inkscape:connector-curvature="0"
         style="display:inline" /></g><g
       display="none"
       id="g158"
       style="display:none"><path
         display="inline"
         d="m 78.1,90.6 -56.2,0 c -1.7,0 -3.1,-1.4 -3.1,-3.1 l 0,-75 c 0,-1.7 1.4,-3.1 3.1,-3.1 l 34.9,0 c 2.5,0 4.9,1 6.6,2.7 L 80.3,29 c 0.9,0.9 1.2,2.2 0.7,3.4 -0.5,1.2 -1.6,1.9 -2.9,1.9 l -18.7,0 c -1.7,0 -3.1,-1.4 -3.1,-3.1 l 0,-15.6 -31.3,0 0,68.8 50,0 0,-43.8 c 0,-1.7 1.4,-3.1 3.1,-3.1 1.7,0 3.1,1.4 3.1,3.1 l 0,46.9 c 0,1.7 -1.3,3.1 -3.1,3.1 z m -15.6,-62.5 8.1,0 -8.1,-8.1 0,8.1 z"
         id="path160"
         inkscape:connector-curvature="0"
         style="display:inline" /></g><g
       display="none"
       id="g162"
       style="display:none"><path
         display="inline"
         d="M 81.2,19 65.6,19 C 65.6,14 61.4,9 56.2,9 L 43.8,9 c -5.2,0 -9.4,5 -9.4,10 l -15.6,0 c -1.7,0 -3.1,1.3 -3.1,3 0,1.7 1.4,3 3.1,3 l 62.5,0 c 1.7,0 3.1,-1.3 3.1,-3 0,-1.7 -1.4,-3 -3.2,-3 z m -37.6,0 c -1.9,0 -2.2,-2.8 -0.3,-3 0.1,0 0.3,0 0.4,0 l 12.5,0 c 0.1,0 0.3,-0.1 0.4,0 1.9,0.2 1.6,3 -0.3,3 L 43.6,19 Z M 81.2,31.4 78.1,87.8 C 78,89.5 76.7,91 75,91 l -50,0 c -1.7,0 -3,-1.5 -3.1,-3.1 L 18.8,31.6 c -0.1,-1.7 1.2,-3.2 2.9,-3.3 1.7,-0.1 3.2,1 3.3,2.7 l 3,53 44,0 3,-53.1 c 0.1,-1.7 1.6,-2.9 3.3,-2.9 1.7,0.1 3,1.7 2.9,3.4 z M 50,78.1 c -1.7,0 -3,-1.4 -3,-3.1 l 0,-37.5 c 0,-1.7 1.3,-3.1 3,-3.1 1.7,0 3,1.4 3,3.1 L 53,75 c 0,1.7 -1.3,3.1 -3,3.1 z m -12.5,0 C 35.8,78.1 34,76.7 34,75 l 0,-34.4 c 0,-1.7 1.8,-3.1 3.5,-3.1 1.7,0 3.5,1.4 3.5,3.1 L 41,75 c 0,1.7 -1.8,3.1 -3.5,3.1 z m 25,0 C 60.8,78.1 59,76.7 59,75 l 0,-34.4 c 0,-1.7 1.8,-3.1 3.5,-3.1 1.7,0 3.5,1.4 3.5,3.1 L 66,75 c 0,1.7 -1.8,3.1 -3.5,3.1 z"
         id="path164"
         inkscape:connector-curvature="0"
         style="display:inline" /></g><g
       display="none"
       id="g166"
       style="display:none"><path
         display="inline"
         d="m 34,51.4 0,0 c -0.3,0.3 -0.5,0.6 -0.6,0.9 l -6.7,18.5 c -0.2,0.6 0.4,1.2 1,1 l 18.5,-6.7 c 0.4,-0.2 0.7,-0.4 0.9,-0.6 l 0,0 37.4,-37.4 -13,-13 L 34,51.4 Z M 71.3,22.9 75.5,27.1 43.4,59.2 38.8,59.6 39.2,55 71.3,22.9 Z M 81.2,84 18.8,84 c -1.7,0 -3.1,-1.3 -3.1,-3 0,-1.7 1.4,-3 3.1,-3 l 62.5,0 c 1.7,0 3.1,1.3 3.1,3 0,1.7 -1.4,3 -3.2,3 z"
         id="path168"
         inkscape:connector-curvature="0"
         style="display:inline" /></g><g
       display="none"
       id="g170"
       style="display:none"><path
         display="inline"
         d="m 75,48.4 c -1.7,0 -3,1.4 -3,3.1 l 0,26.5 -44,0 0,-56 39.5,0 -24.4,24.3 0,0 c -0.3,0.3 -0.5,0.6 -0.6,0.9 l -6.7,18.4 c -0.2,0.6 0.4,1.2 1,1 l 18.5,-6.7 c 0.4,-0.2 0.7,-0.4 0.9,-0.6 l 0,0 37.4,-37.4 -13,-13 -7.1,7.3 C 72.9,16 72.4,16 71.9,16 L 25,16 c -1.7,0 -3,1 -3,2.8 l 0,62.5 c 0,1.7 1.3,2.8 3,2.8 l 50,0 c 1.7,0 3,-1 3,-2.8 l 0,-29.7 c 0,-1.8 -1.3,-3.2 -3,-3.2 z M 84.6,21.9 52.5,54 48,54.4 l 0.4,-4.6 32.1,-32.1 4.1,4.2 z"
         id="path172"
         inkscape:connector-curvature="0"
         style="display:inline" /></g><g
       display="none"
       id="g174"
       style="display:none"><path
         display="inline"
         d="m 75,31.4 -3.1,56.4 c -0.1,1.7 -1.5,3.1 -3.1,3.1 l -37.6,0 c -1.7,0 -3,-1.5 -3.1,-3.1 L 25,31.5 c -0.1,-1.7 1.2,-3.2 2.9,-3.3 1.7,-0.1 3.2,1 3.3,2.7 l 3,53.1 31.6,0 3,-53.1 c 0.1,-1.7 1.6,-3 3.3,-2.9 1.7,0.1 3,1.7 2.9,3.4 z M 47,75 47,37.5 c 0,-1.7 -1.3,-3.1 -3,-3.1 -1.7,0 -3,1.4 -3,3.1 L 41,75 c 0,1.7 1.3,3.1 3,3.1 1.7,0 3,-1.4 3,-3.1 z m 12,0 0,-37.5 c 0,-1.7 -1.3,-3.1 -3,-3.1 -1.7,0 -3,1.4 -3,3.1 L 53,75 c 0,1.7 1.3,3.1 3,3.1 1.7,0 3,-1.4 3,-3.1 z M 81.2,22 c 0,1.7 -1.4,3 -3.1,3 l -56.2,0 c -1.7,0 -3.1,-1.3 -3.1,-3 0,-1.7 1.4,-3 3.1,-3 l 12.5,0 c 0,-5 4.2,-10 9.4,-10 l 12.5,0 c 5.2,0 9.4,5 9.4,10 l 12.5,0 c 1.7,0 3,1.3 3,3 z M 60,17.5 C 60,16.7 59.3,16 58.5,16 l -16,0 C 41.7,16 41,16.7 41,17.5 l 0,0 c 0,0.8 0.7,1.5 1.5,1.5 l 16,0 c 0.8,0 1.5,-0.7 1.5,-1.5 l 0,0 z"
         id="path176"
         inkscape:connector-curvature="0"
         style="display:inline" /></g><g
       display="none"
       id="g178"
       style="display:none"><g
         display="inline"
         id="g180"
         style="display:inline"><path
           d="m 84.4,21.9 -37.5,0 c -1.7,0 -3.1,1.4 -3.1,3.1 l 0,6.2 -28.2,0 c -1.7,0 -3.1,1.4 -3.1,3.1 l 0,9.4 c 0,1.7 1.4,3.1 3.1,3.1 l 9.4,0 0,25 -6.2,0 0,-15.4 c 0,-1.6 -1.2,-3.1 -2.8,-3.2 -1.9,-0.2 -3.4,1.3 -3.4,3.1 l 0,18.7 c 0,1.7 1.4,3.1 3.1,3.1 l 68.6,0 c 1.6,0 3.1,-1.2 3.2,-2.8 0.2,-1.9 -1.3,-3.4 -3.1,-3.4 l -13.6,0 c -0.7,0 -1,-0.8 -0.5,-1.3 C 73.2,67.8 75,63.8 75,59.4 75,55 73.2,51.1 70.3,48.2 69.8,47.7 70.2,46.9 70.8,46.9 l 8.9,0 c 0.9,0 1.6,0.7 1.6,1.6 l 0,13.9 c 0,1.6 1.2,3.1 2.8,3.2 1.9,0.2 3.4,-1.3 3.4,-3.1 l 0,-18.7 0,-18.8 c 0,-1.7 -1.4,-3.1 -3.1,-3.1 z m -65.6,18.7 0,-3.1 28.1,0 c 1.7,0 3.1,-1.4 3.1,-3.1 l 0,-6.2 31.2,0 0,12.5 -62.4,0 z m 40.6,28.2 c -5.2,0 -9.4,-4.2 -9.4,-9.4 0,-5.2 4.2,-9.4 9.4,-9.4 5.2,0 9.4,4.2 9.4,9.4 0,5.2 -4.3,9.4 -9.4,9.4 z M 43.8,59.4 c 0,4.4 1.8,8.3 4.7,11.2 0.5,0.5 0.1,1.3 -0.5,1.3 l -15.2,0 c -0.9,0 -1.6,-0.7 -1.6,-1.6 l 0,-21.9 c 0,-0.9 0.7,-1.6 1.6,-1.6 l 15.1,0 c 0.7,0 1,0.8 0.5,1.3 -2.8,2.9 -4.6,6.9 -4.6,11.3 z"
           id="path182"
           inkscape:connector-curvature="0" /><path
           d="m 71.9,31 -12.5,0 c -1.7,0 -3.1,1.8 -3.1,3.5 0,1.7 1.4,3.5 3.1,3.5 l 12.5,0 C 73.6,38 75,36.2 75,34.5 75,32.8 73.6,31 71.9,31 Z"
           id="path184"
           inkscape:connector-curvature="0" /><path
           d="m 21.9,28 12.5,0 c 1.7,0 3.1,-1.3 3.1,-3 0,-1.7 -1.4,-3 -3.1,-3 l -12.5,0 c -1.7,0 -3.1,1.3 -3.1,3 0,1.7 1.3,3 3.1,3 z"
           id="path186"
           inkscape:connector-curvature="0" /></g></g><g
       display="none"
       id="g188"
       style="display:none"><path
         display="inline"
         d="m 69.2,17.4 -2.2,2.2 -2.2,2.2 -42,42 c -0.6,0.6 -0.6,0.6 -0.7,1 l -6.8,18.5 c -0.2,0.6 0.4,1.2 1,1 l 18.5,-6.8 c 0.4,-0.2 0.6,0 1.1,-0.6 L 36,77 71.4,41.6 c 1.2,-1.2 1.2,-3.2 0,-4.4 C 70.2,36 68.2,36 67,37.2 l -2.2,2.2 -1.7,1.7 -30.8,30.9 -5.1,0.7 0.7,-5.1 30.8,-30.8 1.7,-1.7 8.8,-8.8 6.6,6.6 c 1.2,1.2 3.2,1.2 4.4,0 l 2.2,-2.2 c 3.7,-3.7 3.7,-9.6 0,-13.3 -3.6,-3.6 -9.6,-3.6 -13.2,0 z m 8.8,8.9 -4.4,-4.4 c 1.2,-1.2 3.2,-1.2 4.4,0 1.2,1.2 1.2,3.1 0,4.4 z"
         id="path190"
         inkscape:connector-curvature="0"
         style="display:inline" /></g><g
       display="none"
       id="g192"
       style="display:none"><path
         display="inline"
         d="M 50,90.6 C 27.6,90.6 9.4,72.4 9.4,50 9.4,27.6 27.6,9.4 50,9.4 72.4,9.4 90.6,27.6 90.6,50 90.6,72.4 72.4,90.6 50,90.6 Z m 0,-75 C 31,15.6 15.6,31 15.6,50 15.6,69 31,84.4 50,84.4 69,84.4 84.4,69 84.4,50 84.4,31 69,15.6 50,15.6 Z M 67.8,67.8 C 69,66.6 69,64.6 67.7,63.4 L 53,48.7 53,31.2 c 0,-1.7 -1.3,-3.1 -3,-3.1 -1.7,0 -3,1.4 -3,3.1 L 47,50 c 0,0.8 0.3,1.6 0.9,2.2 l 15.6,15.6 c 0.6,0.6 1.4,0.9 2.2,0.9 0.8,0 1.5,-0.3 2.1,-0.9 z"
         id="path194"
         inkscape:connector-curvature="0"
         style="display:inline" /></g><g
       display="none"
       id="g196"
       style="display:none"><path
         display="inline"
         d="M 84.4,84 15.6,84 C 13.9,84 12,83 12,81.2 l 0,-50 C 12,29.5 13.9,28 15.6,28 l 12.5,0 c 1.7,0 2.9,1.5 2.9,3.2 l 0,37.5 c 0,1.7 -1.3,3.1 -3,3.1 -1.7,0 -3,-1.4 -3,-3.1 l 0,-34.7 -6,0 0,44 62,0 0,-44 -15.4,0 C 63.9,34 62,33 62,31.2 l 0,-9.2 -12,0 0,9.2 c 0,1.7 -1.4,2.8 -3.1,2.8 l -6.2,0 c -1.7,0 -3.1,-1.3 -3.1,-3 0,-1.7 1.4,-3 3.1,-3 l 3.3,0 0,-9.2 C 44,17.1 45.1,16 46.9,16 l 18.8,0 c 1.7,0 3.4,1 3.4,2.8 l 0,9.2 15.4,0 c 1.7,0 2.6,1.5 2.6,3.2 l 0,50 C 87,83 86.1,84 84.4,84 Z M 28.1,22 c 0,-1.7 -1.4,-3 -3.1,-3 l -6.2,0 c -1.7,0 -3.1,1.3 -3.1,3 0,1.7 1.4,3 3.1,3 l 6.2,0 c 1.7,0 3.1,-1.3 3.1,-3 z m 59.4,0 c 0,-1.7 -1.4,-3 -3.1,-3 l -6.2,0 c -1.7,0 -3.1,1.3 -3.1,3 0,1.7 1.4,3 3.1,3 l 6.2,0 c 1.7,0 3.1,-1.3 3.1,-3 z M 75,56.2 C 75,45.9 66.6,37.4 56.2,37.4 45.8,37.4 37.4,45.8 37.4,56.2 37.4,66.6 45.9,75 56.2,75 66.5,75 75,66.6 75,56.2 Z m -6.2,0 c 0,6.9 -5.6,12.5 -12.5,12.5 -6.9,0 -12.5,-5.6 -12.5,-12.5 0,-6.9 5.6,-12.5 12.5,-12.5 6.9,0 12.5,5.7 12.5,12.5 z"
         id="path198"
         inkscape:connector-curvature="0"
         style="display:inline" /></g><g
       display="none"
       id="g200"
       style="display:none"><path
         display="inline"
         d="m 81.2,19 -6.2,0 0,6 6,0 0,6 -62,0 0,-6 6,0 0,-6 -6.2,0 C 15.4,19 12,21.6 12,25 l 0,56.2 c 0,3.4 3.3,6.8 6.8,6.8 l 62.5,0 c 3.4,0 5.8,-3.3 5.8,-6.8 L 87.1,25 C 87,21.6 84.7,19 81.2,19 Z m -0.2,62 -62,0 0,-43 62,0 0,43 z m -47,-53 -6,0 0,-19 6,0 0,10 13,0 0,-10 6,0 0,10 13,0 0,-10 6,0 0,19 -6,0 0,-3 -13,0 0,3 -6,0 0,-3 -13,0 0,3 z m 3,28 -12,0 0,-12 12,0 0,12 z m 19,0 -12,0 0,-12 12,0 0,12 z m 19,0 -13,0 0,-12 13,0 0,12 z m -38,19 -12,0 0,-12 12,0 0,12 z m 19,0 -12,0 0,-12 12,0 0,12 z m 19,0 -13,0 0,-12 13,0 0,12 z"
         id="path202"
         inkscape:connector-curvature="0"
         style="display:inline" /></g><g
       display="none"
       id="g204"
       style="display:none"><path
         display="inline"
         d="m 88.1,33.8 c 3.6,-3 5.6,-7.4 5.6,-11.9 0,-8.6 -7,-15.6 -15.6,-15.6 -4.6,0 -8.9,2.1 -11.9,5.6 -1.1,1.3 -0.9,3.3 0.4,4.4 1.3,1.1 3.3,0.9 4.4,-0.4 1.8,-2.2 4.4,-3.4 7.2,-3.4 5.2,0 9.4,4.2 9.4,9.4 0,2.7 -1.2,5.3 -3.4,7.2 -1.3,1.1 -1.5,3.1 -0.4,4.4 0.6,0.7 1.5,1.1 2.4,1.1 0.6,-0.1 1.3,-0.3 1.9,-0.8 z M 15.9,33.3 c 1.1,-1.3 1,-3.3 -0.3,-4.4 -2.1,-1.8 -3.3,-4.3 -3.3,-7 0,-5.2 4.2,-9.4 9.4,-9.4 2.7,0 5.3,1.2 7.2,3.4 1.1,1.3 3.1,1.5 4.4,0.4 1.3,-1.1 1.5,-3.1 0.4,-4.4 -3,-3.6 -7.4,-5.6 -11.9,-5.6 -8.6,0 -15.6,7 -15.6,15.6 0,4.5 2,8.8 5.4,11.7 0.6,0.5 1.3,0.8 2,0.8 0.8,0 1.7,-0.4 2.3,-1.1 z M 81.2,50 c 0,-17.2 -14,-31.2 -31.2,-31.2 -17.2,0 -31.2,14 -31.2,31.2 0,17.2 14,31.2 31.2,31.2 17.2,0 31.2,-14 31.2,-31.2 z M 75,50 C 75,63.8 63.8,75 50,75 36.2,75 25,63.8 25,50 25,36.2 36.2,25 50,25 63.8,25 75,36.2 75,50 Z m -22,0 0,-12.5 c 0,-1.7 -1.3,-3.1 -3,-3.1 -1.7,0 -3,1.4 -3,3.1 l 0,9.5 -3.2,0 c -1.7,0 -3.1,1.3 -3.1,3 0,1.7 1.4,3 3.1,3 l 6.2,0 c 1.7,0 3,-1.3 3,-3 z M 21.4,92.4 27.6,83 c 1,-1.4 0.6,-3.4 -0.9,-4.3 -1.4,-1 -3.4,-0.6 -4.3,0.9 L 16.2,89 c -1,1.4 -0.6,3.4 0.9,4.3 0.5,0.4 1.1,0.5 1.7,0.5 1,0 1.9,-0.5 2.6,-1.4 z M 83,93.2 c 1.4,-1 1.8,-2.9 0.9,-4.3 l -6.2,-9.4 c -1,-1.4 -2.9,-1.8 -4.3,-0.9 -1.4,1 -1.8,2.9 -0.9,4.3 l 6.2,9.4 c 0.6,0.9 1.6,1.4 2.6,1.4 0.5,0.1 1.2,-0.1 1.7,-0.5 z"
         id="path206"
         inkscape:connector-curvature="0"
         style="display:inline" /></g><g
       display="none"
       id="g208"
       style="display:none"><path
         display="inline"
         d="m 81.2,84.4 -62.4,0 c -3.4,0 -6.2,-2.8 -6.2,-6.2 l 0,-43.8 c 0,-3.4 2.8,-6.2 6.2,-6.2 l 9.4,0 c 1.7,0 3.1,-1.4 3.1,-3.1 0,-5.2 4.2,-9.4 9.4,-9.4 l 18.8,0 c 5.2,0 9.4,4.2 9.4,9.4 0,1.7 1.4,3.1 3.1,3.1 l 9.4,0 c 3.4,0 6.2,2.8 6.2,6.2 l 0,43.8 c -0.1,3.4 -2.9,6.2 -6.4,6.2 z m -62.4,-50 0,43.8 62.5,0 0,-43.8 -9.4,0 c -5.2,0 -9.4,-4.2 -9.4,-9.4 0,-1.7 -1.4,-3.1 -3.1,-3.1 l -18.8,0 c -1.7,0 -3.1,1.4 -3.1,3.1 0,5.2 -4.2,9.4 -9.4,9.4 l -9.3,0 z M 57,70.5 C 58.6,69.9 59.4,68 58.7,66.4 58,64.8 56.2,64 54.6,64.7 53.1,65.3 51.5,65.6 50,65.6 43.1,65.6 37.5,60 37.5,53.1 c 0,-6.9 5.6,-12.5 12.5,-12.5 6.9,0 12.5,5.6 12.5,12.5 0,1.6 -0.3,3.1 -0.9,4.6 -0.6,1.6 0.1,3.4 1.7,4.1 1.6,0.6 3.4,-0.1 4.1,-1.7 0.9,-2.3 1.4,-4.6 1.4,-7 0,-10.3 -8.4,-18.8 -18.8,-18.8 -10.4,0 -18.8,8.4 -18.8,18.8 0,10.4 8.5,18.8 18.8,18.8 2.4,0 4.7,-0.5 7,-1.4 z"
         id="path210"
         inkscape:connector-curvature="0"
         style="display:inline" /></g><g
       display="none"
       id="g212"
       style="display:none"><path
         display="inline"
         d="m 71,15.7 -2,2 c -11.7,-6.9 -26.4,-6.9 -38.1,0 l -1.9,-2 c -1.8,-1.8 -4.8,-1.8 -6.6,0 l -6.6,6.6 c -1.8,1.8 -1.8,4.8 0,6.6 l 1.9,1.9 c -6.9,11.7 -6.9,26.4 0,38.1 l -2,2.1 c -1.8,1.8 -1.8,4.8 0,6.6 l 6.6,6.6 c 1.8,1.8 4.8,1.8 6.6,0 l 1.9,-1.9 c 11.7,6.9 26.4,6.9 38.1,0 l 1.9,1.9 c 1.8,1.8 4.8,1.8 6.6,0 L 84,77.6 c 1.8,-1.8 1.8,-4.8 0,-6.6 l -1.7,-2 c 6.9,-11.7 6.9,-26.4 0,-38.1 L 84.2,29 c 1.8,-1.8 1.8,-4.8 0,-6.6 L 77.6,15.8 C 75.8,13.9 72.8,13.9 71,15.7 Z m -8.1,8.2 -4.9,4.8 c -0.4,0.4 -1,0.5 -1.6,0.4 -4.2,-1.3 -8.7,-1.3 -12.9,0 -0.6,0.2 -1.2,0 -1.6,-0.4 L 37,23.8 c -0.8,-0.8 -0.5,-2.1 0.5,-2.5 7.9,-3.4 16.9,-3.4 24.8,0 1.1,0.5 1.4,1.8 0.6,2.6 z M 61,61 c -6,6.1 -16,6.1 -22,0 -6,-6.1 -6.1,-16 0,-22 6.1,-6 16,-6.1 22.1,0 6.1,6.1 6,16 -0.1,22 z M 25.7,21.3 36.9,32.5 c -0.8,0.6 -1.6,1.3 -2.4,2 -0.8,0.7 -1.4,1.5 -2,2.4 L 21.3,25.7 25.7,21.3 Z m -1.8,15.8 4.9,4.9 c 0.4,0.4 0.5,1 0.4,1.6 -1.3,4.2 -1.3,8.7 0,12.9 0.2,0.6 0,1.2 -0.4,1.6 L 23.9,63 c -0.8,0.8 -2.1,0.5 -2.5,-0.5 -3.4,-7.9 -3.4,-16.9 0,-24.8 0.4,-1.1 1.7,-1.4 2.5,-0.6 z M 21.3,74.3 32.5,63.1 c 0.6,0.8 1.3,1.6 2,2.4 0.8,0.8 1.5,1.4 2.4,2 L 25.7,78.7 21.3,74.3 Z m 15.8,1.8 4.9,-4.9 c 0.4,-0.4 1,-0.5 1.6,-0.4 4.2,1.3 8.7,1.3 12.9,0 0.6,-0.2 1.2,0 1.6,0.4 l 4.9,4.9 c 0.8,0.8 0.5,2.1 -0.5,2.5 -7.9,3.4 -16.9,3.4 -24.8,0 -1.1,-0.4 -1.4,-1.7 -0.6,-2.5 z M 74.3,78.7 63.1,67.5 c 0.8,-0.6 1.6,-1.3 2.4,-2 0.8,-0.8 1.4,-1.5 2,-2.4 l 11.2,11.2 -4.4,4.4 z M 76.1,62.9 71.3,58 c -0.4,-0.4 -0.5,-1 -0.4,-1.6 1.3,-4.2 1.3,-8.7 0,-12.9 -0.2,-0.6 0,-1.2 0.4,-1.6 L 76.2,37 c 0.8,-0.8 2.1,-0.5 2.5,0.5 3.4,7.9 3.4,16.9 0,24.8 -0.5,1.1 -1.8,1.4 -2.6,0.6 z M 78.7,25.7 67.5,36.9 c -0.6,-0.8 -1.3,-1.6 -2,-2.4 -0.8,-0.8 -1.5,-1.4 -2.4,-2 l 11.2,-11.2 4.4,4.4 z"
         id="path214"
         inkscape:connector-curvature="0"
         style="display:inline" /></g><g
       display="none"
       id="g216"
       style="display:none"><path
         display="inline"
         d="m 59.4,53 c 0,1.7 -1.4,3 -3.1,3 L 50,56 c -1.7,0 -3,-1.1 -3,-2.9 l 0,-12.5 c 0,-1.7 1.3,-3.1 3,-3.1 1.7,0 3,1.4 3,3.1 l 0,9.4 3.2,0 c 1.8,0 3.2,1.3 3.2,3 z m 3.1,28.2 c -1.7,0 -3.5,1.4 -3.5,3.1 l 0,6.2 c 0,1.7 1.8,3.1 3.5,3.1 1.7,0 3.5,-1.4 3.5,-3.1 l 0,-6.2 c 0,-1.7 -1.8,-3.1 -3.5,-3.1 z M 79.7,43.8 c -0.4,0 -0.8,0.1 -1.2,0.3 -0.5,0.2 -0.8,0 -0.9,-0.5 C 75.9,36.6 71,30.6 66,26.8 L 66,9.4 C 66,7.6 64.1,6.1 62.2,6.3 60.6,6.4 59,7.9 59,9.5 l 0,11.9 c 0,1 -0.8,1.8 -1.8,1.5 -2.4,-0.6 -4.7,-1 -7.3,-1 -2.6,0 -4.8,0.3 -7.2,1 -1,0.3 -1.8,-0.5 -1.8,-1.5 l 0,-12 C 40.9,7.6 39,6.1 37.1,6.3 35.6,6.4 34,7.9 34,9.5 l 0,17.1 C 27,31.7 21.5,40.3 21.5,50 21.5,59.7 27,68.3 34,73.4 l 0,17.3 c 0,1.8 1.9,3.3 3.8,3.1 1.6,-0.2 3.2,-1.6 3.2,-3.2 l 0,-12 c 0,-1 0.8,-1.8 1.8,-1.5 3.1,0.9 6.4,1.2 9.9,0.9 12.1,-1.1 22,-10 24.7,-21.5 0.1,-0.5 0.6,-0.7 1.1,-0.5 0.3,0.2 0.8,0.2 1.2,0.3 1.8,0.1 3.3,-1.5 3.3,-3.3 l 0,-6 c 0,-1.7 -1.5,-3.3 -3.3,-3.2 z M 50,71.9 C 37.9,71.9 28.1,62.1 28.1,50 28.1,37.9 37.9,28.1 50,28.1 c 12.1,0 21.9,9.8 21.9,21.9 0,12.1 -9.8,21.9 -21.9,21.9 z"
         id="path218"
         inkscape:connector-curvature="0"
         style="display:inline" /></g><g
       display="none"
       id="g220"
       style="display:none"><g
         display="inline"
         id="g222"
         style="display:inline"><path
           d="m 85.9,28.1 -18.7,0 c -0.9,0 -1.6,-0.7 -1.6,-1.6 l 0,-4.7 c 0,-3.5 -2.8,-6.2 -6.2,-6.2 l -18.8,0 c -3.5,0 -6.2,2.8 -6.2,6.2 l 0,4.7 c 0,0.9 -0.7,1.6 -1.6,1.6 l -4.7,0 -6.2,0 -7.8,0 c -2.6,0 -4.7,2.1 -4.7,4.7 l 0,46.9 c 0,2.6 2.1,4.7 4.7,4.7 l 71.9,0 c 2.6,0 4.7,-2.1 4.7,-4.7 l 0,-46.9 c -0.1,-2.6 -2.2,-4.7 -4.8,-4.7 z m -44.5,-6.2 17.2,0 c 0.4,0 0.8,0.3 0.8,0.8 l 0,5.5 -18.8,0 0,-5.5 c 0,-0.5 0.4,-0.8 0.8,-0.8 z M 72,34 72,50.8 c -7,3.5 -14.4,5.4 -22,5.4 -7.6,0 -15,-1.9 -22,-5.4 L 28,34 72,34 Z m -56,44 0,-44 6,0 0,44 -6,0 z M 28,57.8 c 7,3.1 14.4,4.7 22,4.7 7.6,0 15,-1.6 22,-4.7 L 72,78 28,78 28,57.8 Z m 56,20.2 -6,0 0,-44 6,0 0,44 z"
           id="path224"
           inkscape:connector-curvature="0" /><rect
           x="47"
           y="41"
           width="6"
           height="9"
           id="rect226" /></g></g><g
       display="none"
       id="g228"
       style="display:none"><g
         display="inline"
         id="g230"
         style="display:inline"><path
           d="m 70.3,46.9 -31.2,0 c -0.9,0 -1.6,-0.7 -1.6,-1.6 l 0,-13.7 c 0,-6.7 5.2,-12.5 11.9,-12.8 7.2,-0.4 13.1,5.4 13.1,12.5 l 0,6.1 c 0,1.6 1.2,3.1 2.8,3.2 1.9,0.2 3.4,-1.3 3.4,-3.1 l 0,-5.8 C 68.7,21.2 60.1,12.3 49.6,12.5 39.5,12.7 31.2,21 31.2,31.2 l 0,14.1 c 0,0.9 -0.7,1.6 -1.6,1.6 l 0,0 c -2.6,0 -4.7,2.1 -4.7,4.7 l 0,34.4 c 0,2.6 2.1,4.7 4.7,4.7 l 40.6,0 c 2.6,0 4.7,-2.1 4.7,-4.7 l 0,-34.4 C 75,49 72.9,46.9 70.3,46.9 Z m -2.3,37.5 -36,0 c -0.4,0 -0.8,-0.3 -0.8,-0.8 l 0,-29.7 c 0,-0.4 0.3,-0.8 0.8,-0.8 l 36,0 c 0.4,0 0.8,0.3 0.8,0.8 l 0,29.7 c 0,0.4 -0.4,0.8 -0.8,0.8 z"
           id="path232"
           inkscape:connector-curvature="0" /><path
           d="m 50,62.5 0,0 c -1.7,0 -3.1,1.4 -3.1,3.1 l 0,9.4 6.2,0 0,-9.4 c 0,-1.7 -1.4,-3.1 -3.1,-3.1 z"
           id="path234"
           inkscape:connector-curvature="0" /></g></g><g
       display="none"
       id="g236"
       style="display:none"><path
         display="inline"
         d="m 59.4,53 c 0,1.7 -1.4,3 -3.1,3 L 50,56 c -1.7,0 -3,-1.1 -3,-2.9 l 0,-9.4 c 0,-1.7 1.3,-3.1 3,-3.1 1.7,0 3,1.4 3,3.1 l 0,6.3 3.2,0 c 1.8,0 3.2,1.3 3.2,3 z M 81,37.5 l 0,9.4 c 0,1.7 -1.1,3.1 -2.9,3.1 l -3.1,0 0,15.6 c 0,4.8 -2.7,9 -6.7,11.1 l -0.1,0.7 c -1.5,3 -2.1,6.4 -2.1,9.8 l 0,3.5 c 0,0.9 -0.6,1.7 -1.2,2.3 -0.5,0.4 -4.8,3.9 -14.7,3.9 -9.7,0 -14.3,-3.5 -14.7,-3.9 -0.7,-0.6 -1.3,-1.5 -1.3,-2.4 l 0,-3.5 c 0,-3.4 -0.6,-6.8 -2.1,-9.8 l -0.2,-0.7 c -4,-2.1 -6.6,-6.3 -6.6,-11.1 l 0,-31.1 c 0,-4.8 2.7,-9 6.7,-11.1 l 0.1,-0.7 c 1.5,-3 2.1,-6.4 2.1,-9.8 l 0,-3.4 c 0,-0.8 0.5,-1.6 1.1,-2.2 0.7,-0.7 4.6,-4 14.8,-4 10.2,0 14.3,3.4 14.9,4 0.4,0.6 1,1.3 1,2.2 l 0,3.5 c 0,3.4 0.6,6.8 2.1,9.8 l 0.2,0.5 C 72.4,25.2 75,30 75,34 l 3.1,0 c 1.8,0 2.9,1.8 2.9,3.5 z M 41,12.8 c 0,2.4 -0.5,4.8 -1.1,7.1 -0.3,1 0.3,2 1.3,2 l 17.6,0 c 1,0 1.6,-1 1.3,-2 C 59.5,17.6 59,15.2 59,12.8 L 59,11 c -1,-0.7 -3.9,-1.7 -9,-1.7 -5.1,0 -8,1 -9,1.7 l 0,1.8 z m 18,74.4 c 0,-2.4 0.5,-4.8 1.1,-7.1 0.3,-1 -0.3,-2 -1.3,-2 l -17.6,0 c -1,0 -1.6,1 -1.3,2 0.6,2.3 1.1,4.7 1.1,7.1 l 0,1.7 c 1,0.7 4.1,1.8 9,1.8 4.9,0 8,-1 9,-1.7 l 0,-1.8 z m 10,-53 C 69,30.7 66.2,28 62.8,28 L 37.2,28 C 33.7,28 31,30.8 31,34.2 l 0,31.5 c 0,3.5 2.8,6.2 6.2,6.2 l 25.5,0 c 3.5,0 6.2,-2.8 6.2,-6.2 l 0,-31.5 z"
         id="path238"
         inkscape:connector-curvature="0"
         style="display:inline" /></g><g
       display="none"
       id="g240"
       style="display:none"><g
         display="inline"
         id="g242"
         style="display:inline"><rect
           x="66"
           y="53"
           width="6"
           height="6"
           id="rect244" /><path
           d="m 83.6,40.6 -2.3,0 0,-10.9 C 81.3,27.1 79.2,25 76.6,25 L 22,25 c -1.6,0 -3.1,-1.2 -3.2,-2.8 -0.2,-1.9 1.3,-3.4 3.1,-3.4 l 53,0 c 1.6,0 3.1,-1.2 3.2,-2.8 0.2,-1.9 -1.3,-3.4 -3.1,-3.4 l -52.9,0 c -4.9,0 -9.1,3.6 -9.6,8.5 -0.5,5.6 3.9,10.3 9.3,10.3 l 53.2,0 0,7.8 c 0,0.9 -0.7,1.6 -1.6,1.6 l -7.4,0 c -8.5,0 -15.7,6.6 -16,15 -0.3,8.9 6.8,16.2 15.6,16.2 l 7.8,0 c 0.9,0 1.6,0.7 1.6,1.6 l 0,7.8 -56.2,0 0,-43.8 c 0,-1.6 -1.2,-3.1 -2.8,-3.2 -1.9,-0.2 -3.4,1.3 -3.4,3.1 l 0,45.3 c 0,2.6 2.1,4.7 4.7,4.7 l 59.4,0 c 2.6,0 4.7,-2.1 4.7,-4.7 l 0,-10.9 2.3,0 c 2.2,0 3.9,-1.7 3.9,-3.9 l 0,-23.5 c -0.1,-2.1 -1.8,-3.9 -4,-3.9 z m -3.1,25 -14.6,0 C 61,65.6 56.8,62 56.3,57.1 55.8,51.5 60.2,46.8 65.6,46.8 l 14.8,0 c 0.4,0 0.8,0.3 0.8,0.8 l 0,17.2 c 0,0.5 -0.3,0.8 -0.7,0.8 z"
           id="path246"
           inkscape:connector-curvature="0" /></g></g><g
       display="none"
       id="g248"
       style="display:none"><path
         display="inline"
         d="m 21.9,66 c 0,-1.7 1.4,-3 3.1,-3 l 12.5,0 c 1.7,0 3.1,1.3 3.1,3 0,1.7 -1.4,3 -3.1,3 L 25,69 c -1.7,0 -3.1,-1.3 -3.1,-3 z m 28.1,3 6.2,0 c 1.7,0 3.1,-1.3 3.1,-3 0,-1.7 -1.4,-3 -3.1,-3 L 50,63 c -1.7,0 -3.1,1.3 -3.1,3 0,1.7 1.4,3 3.1,3 z m 21.9,0 3.1,0 c 1.7,0 3.1,-1.3 3.1,-3 0,-1.7 -1.4,-3 -3.1,-3 l -3.1,0 c -1.7,0 -3.1,1.3 -3.1,3 0,1.7 1.3,3 3.1,3 z M 91,28.1 l 0,2.3 0,0.8 0,3.1 0,2.3 0,43 c 0,2.6 -2.5,4.3 -5.1,4.3 l -71.8,0 C 11.5,84 9,82.3 9,79.7 l 0,-43 0,-2.3 0,-3.1 0,-1.6 0,-1.6 C 9,23 13.6,19 18.8,19 l 62.5,0 c 5.1,0 9.7,4 9.7,9.1 z m -7,18.9 -68,0 0,31 68,0 0,-31 z m 0,-16.5 0,-2.3 c 0,-1.7 -1,-3.1 -2.8,-3.1 l -62.4,0 C 17,25 16,26.4 16,28.1 l 0,1.6 0,1.6 0,2.7 68,0 0,-2.8 0,-0.7 z"
         id="path250"
         inkscape:connector-curvature="0"
         style="display:inline" /></g><path
       inkscape:connector-curvature="0"
       id="path8-39"
       d="m 82.4,56.746307 -64.8,0 c -1.7,0 -5.1,-2.483871 -5.1,-5.5 l 0,0 c 0,-3.016129 3.4,-5.5 5.1,-5.5 l 64.8,0 c 1.7,0 5.1,2.483871 5.1,5.5 l 0,0 c 0,3.016129 -3.4,5.5 -5.1,5.5 z"
       sodipodi:nodetypes="ssccssccs" /><path
       inkscape:connector-curvature="0"
       id="path8-39-0"
       d="m 82.4,86.092625 -64.8,0 c -1.7,0 -5.1,-2.483871 -5.1,-5.5 l 0,0 c 0,-3.016129 3.4,-5.5 5.1,-5.5 l 64.8,0 c 1.7,0 5.1,2.483871 5.1,5.5 l 0,0 c 0,3.016129 -3.4,5.5 -5.1,5.5 z"
       sodipodi:nodetypes="ssccssccs" /></g></svg>